<svg width="1312.000000" height="377.000000" viewBox="0 0 1312 377" fill="none" xmlns="http://www.w3.org/2000/svg" xmlns:xlink="http://www.w3.org/1999/xlink">
	<desc>
			Created with Pixso.
	</desc>
	<path id="外粗线_6_" d="M190.301 370.382C291.112 370.382 373.334 288.759 373.334 188.682C373.334 88.6052 291.112 6.98187 190.301 6.98187C89.4905 6.98187 7.26868 88.6052 7.26868 188.682C7.26868 288.759 89.4905 370.382 190.301 370.382ZM190.301 377C85.8181 377 0.602295 292.404 0.602295 188.682C0.602295 84.9597 85.8181 0.364075 190.301 0.364075C294.784 0.364075 380 84.9597 380 188.682C380 292.404 294.784 377 190.301 377Z" fill-rule="nonzero" fill="#FFFFFF"/>
	<path id="外细线_6_" d="M365.183 189.25C365.183 92.8376 286.425 14.2023 189.859 14.2023C93.2924 14.2023 14.5341 92.8376 14.5341 189.25C14.5341 285.663 93.2939 364.298 189.859 364.298C286.423 364.298 365.183 285.663 365.183 189.25ZM13.2489 189.25C13.2489 92.1298 92.5857 12.9186 189.859 12.9186C287.131 12.9186 366.468 92.1298 366.468 189.25C366.468 286.37 287.133 365.582 189.859 365.582C92.5857 365.582 13.2489 286.37 13.2489 189.25Z" stroke="#FFFFFF" stroke-width="1.186400"/>
	<path id="path" d="" fill-rule="nonzero" fill="#FFFFFF"/>
	<path id="path" d="" fill-rule="nonzero" fill="#FFFFFF"/>
	<path id="止于至善_6_" d="M247.037 314.227C248.145 314.262 251.155 316.281 250.523 317.852C250.022 319.009 248.922 320.029 247.75 320.467C247.804 321.029 247.76 321.021 247.513 321.394C247.301 321.451 247.089 321.507 246.879 321.562C246.746 321.451 246.615 321.338 246.482 321.225C246.482 321.168 246.482 321.113 246.482 321.055C246.195 319.822 247.213 319.45 247.116 318.526C247.039 317.774 246.15 315.28 246.166 315.153C246.324 314.583 246.644 314.529 247.037 314.227ZM242.36 320.26C242.545 320.316 242.728 320.373 242.913 320.428C242.886 321.44 242.861 322.452 242.834 323.464C242.518 323.83 242.2 324.196 241.882 324.561C240.023 324.585 239.274 323.037 238.477 321.947C238.536 321.57 238.577 321.592 238.714 321.355C239.737 321.404 240.118 321.94 241.171 322.03C241.318 321.203 241.915 320.778 242.36 320.26ZM250.355 321.35C250.593 321.35 250.831 321.35 251.068 321.35C251.307 321.575 251.544 321.799 251.781 322.025C251.754 322.25 251.728 322.474 251.702 322.7C251.366 323.394 248.463 324.627 247.505 324.894C247.453 325.005 247.399 325.118 247.347 325.231C247.45 325.829 247.709 326.331 247.981 326.749C249.17 326.829 250.349 325.883 251.149 325.231C251.879 325.274 252.445 325.697 252.02 326.411C251.019 328.091 248.436 327.676 248.139 330.291C248.471 331.173 248.735 331.295 249.247 331.893C249.013 333.224 243.964 336.304 242.752 337.544C241.721 337.565 241.179 337.232 240.613 336.785C240.64 336.559 240.667 336.334 240.692 336.11C240.877 335.969 241.062 335.827 241.247 335.688C241.879 335.513 242.146 335.868 242.674 336.025C243.286 334.227 246.206 334.879 246.318 332.483C246.048 331.906 245.728 331.606 245.289 331.218C244.002 331.449 242.982 333.318 241.487 332.737C241.329 332.624 241.171 332.511 241.011 332.4C241.029 332.019 241.066 331.945 241.169 331.724C242.055 331.692 245.436 329.17 245.763 328.519C245.659 327.827 245.298 327.764 244.971 327.339C244.732 327.311 244.495 327.282 244.258 327.256C243.42 327.918 242.576 328.632 241.882 329.446C240.967 329.47 240.513 329.213 239.982 328.856C239.939 327.612 241.651 327.441 242.437 326.832C243.111 326.309 244.026 326.024 244.734 325.482C246.181 324.378 247.422 322.612 249.012 321.688C249.458 321.575 249.906 321.462 250.355 321.35ZM116.363 318.711C116.559 318.761 116.757 318.811 116.953 318.862C117.266 319.739 118.385 320.053 118.535 321.051C119.236 325.74 114.386 326.129 113.722 328.786C113.779 328.792 115.227 329.355 115.282 329.37C116.907 329.818 116.871 329.72 118.195 330.041C120.119 330.507 124.122 332.72 125.934 332.582C127.125 332.491 127.668 332.141 128.934 332.177C129.89 332.734 132.661 335.507 131.879 336.973C131.214 338.169 129.612 337.602 128.676 336.984C125.894 335.149 121.849 333.657 118.401 331.935C116.368 330.922 111.439 331.874 110.585 331.369C109.702 330.925 109.336 329.305 110.076 328.061C111.105 327.086 112.133 326.112 113.162 325.137C113.802 324.44 113.951 323.676 114.537 322.821C115.031 322.257 115.524 321.696 116.017 321.132C115.936 320.537 115.857 319.943 115.778 319.349C115.971 319.139 116.167 318.926 116.363 318.711ZM138.98 322.725C141.255 323.036 141.141 324.691 141.622 326.512C141.762 327.042 142.244 327.603 141.976 328.211C140.841 330.223 136.708 328.528 136.773 326.551C137.252 325.986 137.731 325.424 138.212 324.859C138.555 323.868 138.224 323.467 138.792 322.799C138.857 322.774 138.917 322.749 138.98 322.725ZM156.9 340.498C154.186 341.028 150.618 347.757 147.417 347.283C147.262 347.23 147.107 347.175 146.952 347.122C146.941 346.904 146.928 346.684 146.917 346.466C147.553 345.373 149.13 345.235 150.267 344.444C151.156 343.828 155.779 338.101 156.021 337.188C155.987 337.001 155.952 336.814 155.917 336.628C155.762 336.574 155.609 336.519 155.454 336.466C153.162 336.896 152.649 337.842 152.106 338.192C151.927 338.307 150.359 339.103 150.62 338.952C149.776 339.438 149.598 339.401 149.01 339.799C148.264 340.306 148.048 340.167 147.55 340.074C147.381 340.043 146.789 340.302 146.617 340.306C146.195 340.939 146.103 340.888 145.126 341.182C144.896 341.031 144.709 340.943 144.478 340.793C144.336 339.655 145.112 338.321 145.89 337.676C146.596 337.092 146.872 336.978 147.479 336.975C148.258 336.971 148.331 336.507 148.743 336.294C149.42 335.944 149.738 336.537 151.304 336.352C151.981 336.272 152.487 336.09 153.049 335.71C153.592 335.531 153.778 335.68 154.083 335.644C156.209 335.387 157.422 332.931 158.197 331.664C158.01 330.569 157.786 326.969 158.065 326.316C158.069 326.245 158.1 325.971 157.941 325.968C157.163 325.953 156.519 325.302 156.624 325.093C156.636 323.292 160.019 324.323 160.476 325.294C161.638 327.774 160.094 329.958 160.174 332.042C160.678 332.593 161.088 332.77 161.287 333.822C161.104 334.492 160.868 334.911 159.874 335.073C160.154 335.443 160.342 336.025 160.92 336.036C161.992 335.307 166.159 329.34 165.993 327.915C165.247 327.107 165.293 326.854 165.802 325.966C167.463 325.707 170.276 328.13 169.473 329.837C168.319 332.295 166.592 334.716 164.482 336.542C163.379 337.494 161.328 337.737 160.75 339.294C160.358 340.341 160.416 341.218 160.182 342.29C160.049 342.897 159.343 343.616 159.226 344.145C158.967 345.32 159.169 344.65 158.957 346.381C158.917 346.703 158.87 347.24 158.91 347.451C158.962 347.682 158.916 347.586 158.957 347.805C159.066 349.349 158.733 350.651 157.624 351.414C156.055 352.497 154.502 351.122 153.865 350.587C154.12 350.802 153.724 350.411 153.495 350.187C153.442 350.06 153.342 349.827 153.29 349.7C153.386 349.352 153.464 349.402 153.753 349.174C154.483 348.774 155.389 348.961 155.941 348.358C156.557 347.687 157.191 341.99 156.9 340.498ZM254.552 326.57C255.137 326.57 255.258 326.688 255.582 326.907C255.608 327.19 255.635 327.469 255.662 327.752C254.973 329.195 252.622 329.126 251.623 330.871C251.095 330.843 250.567 330.815 250.039 330.787C249.933 330.732 249.829 330.675 249.721 330.619C249.748 330.451 249.775 330.281 249.802 330.114C250.235 329.119 253.398 327.273 254.552 326.57ZM125.099 321.661C125.428 321.727 125.758 321.793 126.087 321.859C126.605 322.461 126.73 322.606 127.31 323.281C128.77 324.017 129.615 322.948 130.73 323.923C130.648 324.429 130.57 324.538 130.36 324.806C128.866 325.297 128.279 327.268 126.849 327.573C125.535 327.851 123.441 324.327 124.165 322.672C124.474 322.334 124.787 321.997 125.099 321.661ZM220.558 324.903C221.48 324.95 221.942 325.366 222.329 325.914C222.299 326.138 222.269 326.361 222.239 326.587C220.62 327.411 213.318 328.502 212.774 329.45C213.012 330.095 213.247 330.74 213.483 331.385C211.288 333.965 206.846 335.099 205.612 338.454C208.013 338.475 209.538 337.436 211.714 337.108C211.714 337.248 211.801 337.472 211.801 337.612C209.927 338.942 205.618 340.526 202.866 340.81C202.605 340.493 202.268 340.342 201.894 340.137C201.772 339.614 201.522 338.753 201.717 338.285C202.158 337.464 203.386 337.488 204.105 336.938C205.582 335.813 208.655 333.539 209.412 331.888C209.363 331.471 209.336 331.4 209.058 331.215C208.288 330.757 207.302 331.148 206.404 331.215C204.946 331.323 203.825 330.718 202.866 330.037C202.885 329.657 202.929 329.582 203.043 329.363C205.103 329.13 206.691 328.613 208.44 328.27C208.911 328.27 209.382 328.27 209.855 328.27C210.454 328.128 210.745 327.763 211.535 327.681C211.82 327.618 211.869 327.713 212.041 327.65C212.136 327.615 212.207 327.606 212.291 327.535C213.87 326.218 218.717 325.735 220.558 324.903ZM261.911 328.634C263.059 328.609 263.663 329.313 263.969 330.151C263.969 330.349 263.969 330.545 263.969 330.741C263.601 331.319 263.302 331.818 262.385 331.838C260.164 330.984 256.936 332.902 255.969 332.513C255.969 332.373 255.969 332.232 255.969 332.091C257.237 330.121 260.19 330.096 261.911 328.634ZM252.49 331.507C253.288 331.438 253.874 331.607 253.756 332.267C253.835 332.828 253.914 333.39 253.993 333.952C253.642 335.011 252.42 336.038 251.459 336.229C251.432 336.512 251.405 336.791 251.378 337.073C251.22 337.017 251.062 336.96 250.904 336.904C250.877 336.847 250.85 336.791 250.825 336.734C250.893 335.159 252.001 334.211 252.33 332.94C252.508 332.256 252.216 332.008 252.49 331.507ZM248.049 336.146C248.207 336.174 248.365 336.202 248.525 336.229C248.683 336.37 248.841 336.512 248.999 336.651C248.972 336.877 248.947 337.1 248.922 337.326C248.055 337.565 248.041 339 247.259 339.35C246.81 339.322 246.361 339.294 245.912 339.266C245.624 339.354 245.354 339.608 244.883 339.688C245.183 340.495 244.797 340.854 244.328 341.29C243.747 341.29 242.243 340.873 242.111 340.953C242.01 341.012 241.852 341.679 241.715 341.795C241.133 342.218 240.553 342.638 239.971 343.06C239.761 343.06 239.549 343.06 239.337 343.06C237.679 344.231 235.892 347.458 233.159 345.505C233.132 345.308 233.107 345.111 233.08 344.915C234.403 343.456 234.5 344.515 235.932 344.325C236.425 342.827 237.497 343.092 238.784 342.469C241.424 341.191 243.142 338.561 245.595 337.157C245.833 337.241 246.071 337.324 246.307 337.411C246.756 336.849 247.586 336.72 248.049 336.146ZM256.763 336.053C257.052 336.082 257.343 336.11 257.634 336.138C257.82 336.162 257.894 336.337 258.207 336.33C258.424 336.325 258.634 336.314 258.979 336.559C258.979 337.458 258.979 338.357 258.979 339.258C258.715 339.567 258.452 339.876 258.187 340.185C258.187 341.085 258.187 341.984 258.187 342.885C257.637 344.259 257.001 343.385 256.524 343.643C255.893 343.983 254.889 344.871 254.148 345.075C253.672 345.104 253.198 345.132 252.722 345.16C251.96 345.435 251.769 346.177 250.82 346.257C249.372 345.449 248.585 343.261 247.573 341.956C247.137 341.394 246.318 341.708 245.83 341.196C245.83 340.662 245.899 340.556 246.068 340.268C250.204 340.165 249.65 342.097 251.691 344.233C253.441 344.215 255.21 342.734 256.127 341.703C256.048 341.337 255.967 340.971 255.89 340.607C255.801 339.758 256.189 339.192 255.969 338.33C255.759 338.275 255.547 338.219 255.335 338.161C254.529 338.527 254.08 339.277 253.277 339.51C253.195 338.663 253.158 338.326 253.512 337.823C254.698 337.417 254.145 336.984 254.859 336.475C255.495 336.336 256.129 336.195 256.763 336.053ZM217.052 334.115C220.494 334.095 222.146 334.377 223.953 336.22C223.922 336.444 223.894 336.669 223.866 336.893C223.688 337.246 223.515 337.312 223.157 337.483C221.512 337.204 220.263 335.964 218.824 335.548C218.013 335.313 216.97 335.477 216.347 335.126C216.417 334.49 216.641 334.391 217.052 334.115ZM174.708 332.21C176.529 331.802 179.451 332.866 178.885 335.077C178.807 335.451 178.749 335.543 178.403 335.746C177.432 336.369 174.907 335.691 172.985 335.612C171.18 335.539 169.435 335.917 168.203 334.977C168.183 334.87 168.164 334.763 168.143 334.658C168.304 334.435 168.466 334.213 168.627 333.99C169.499 333.847 173.904 333.407 174.365 332.687C174.477 332.527 174.593 332.369 174.708 332.21ZM214.899 338.818C216.844 338.966 216.052 341.263 217.286 342.017C218.337 342.845 219.464 341.431 220.649 341.681C220.788 341.712 220.881 341.659 221.009 341.675C221.068 341.646 221.24 341.618 221.298 341.591C221.38 341.541 221.466 341.529 221.532 341.513C221.769 341.541 222.005 341.57 222.239 341.596C222.446 341.764 222.651 341.934 222.859 342.102C222.844 342.682 222.738 342.714 222.504 343.027C220.671 343.702 217.326 344.016 216.932 346.058C216.776 346.864 216.929 347.72 216.667 348.583C216.439 349.333 215.849 349.651 215.783 350.602C215.9 350.799 216.02 350.995 216.137 351.191C219.379 352.049 223.794 347.644 227.106 350.94C227.078 351.163 227.049 351.387 227.019 351.613C226.842 351.724 226.665 351.837 226.488 351.949C225.998 352.186 225.002 352.17 224.542 351.949C224.414 351.822 224.264 351.72 224.103 351.742C222.441 351.982 221.605 351.773 219.942 351.779C219.561 351.779 218.788 352.415 218.261 352.537C217.123 352.801 215.958 352.526 214.811 352.788C213.985 353.153 213.159 353.518 212.335 353.882C210.564 354.529 208.306 355.15 206.672 355.649C205.13 356.12 203.633 355.163 203.046 354.218C203.075 354.135 203.105 354.05 203.135 353.965C203.293 353.619 203.482 353.448 203.841 353.292C204.886 352.793 205.828 353.73 206.938 353.63C209.109 353.435 211.595 352.614 213.129 351.693C213.473 350.661 213.712 347.523 212.865 346.813C211.164 346.031 208.317 347.706 206.228 346.39C206.255 345.92 206.318 345.899 206.494 345.634C208.558 345.234 212.716 344.873 213.747 343.192C214.605 341.8 213.75 339.901 214.899 338.818ZM167.582 339.553C169.477 339.134 172.019 339.873 172.501 341.293C172.941 342.586 169.793 346.044 168.576 345.816C167.31 345.452 168.865 343.476 169.16 342.899C168.586 341.882 167.884 341.854 167.111 341.21C166.976 340.659 166.864 340.381 166.97 339.995C167.176 339.848 167.38 339.702 167.582 339.553ZM166.649 348.018C166.878 348.004 167.106 347.99 167.335 347.974C167.704 348.548 168.263 349.204 168.782 349.691C169.556 350.417 171.984 350.202 171.581 352.151C171.488 352.616 171.237 353.013 170.838 353.28C170.317 353.546 169.28 353.958 168.758 353.746C168.123 353.488 168.429 352.859 168.07 352.384C167.198 351.232 164.94 349.914 166.649 348.018Z" fill-rule="evenodd" fill="#FFFFFF"/>
	<path id="大礼堂轮廓_6_" d="M189.546 145.267L189.523 149.225L187.876 149.4L178.723 152.76L178.723 154.747L180.789 154.788L180.715 160.199L179.577 160.354C178.616 160.453 153.153 162.223 144.266 190.325L143.972 191.668L131.751 191.435L131.711 204.21L120.258 204.217L121.086 205.585L155.167 262.653L190.233 262.592L224.657 262.79L260.831 204.618L258.869 204.133L249.256 204.173L249.256 191.846L237.133 191.582L236.927 190.677C228.777 163.276 202.289 160.339 202.205 160.326L200.586 160.21L200.469 154.659L202.47 154.689L202.382 153.024L193.354 149.57L191.73 149.254L191.798 141.698L190.583 139.711L189.546 141.659L189.546 145.267ZM186.974 144.245L187.013 140.742L187.641 140.411L190.583 138.464L192.819 139.904L194.095 140.567L194.063 143.721L194.029 147.236L199.852 149.705L204.992 152.435L204.957 153.837L204.989 156.974L202.421 156.982L202.418 158.206C210.231 159.336 229.404 162.688 238.899 189.644L251.904 189.644L251.846 201.549L260.792 201.568L264.293 201.597L264.941 202.591L264.464 203.456L263.881 204.428L226.973 267.499L226.573 268.166L225.791 268.172L190.244 268.449L154.676 268.172L153.893 268.166L153.493 267.499L116.586 204.428L116.002 203.456L116.847 202.699L118.529 202.065L120.207 202.14L129.376 202.144L129.376 189.796L142.265 189.644C150.504 162.162 172.858 159.891 178.518 158.735L178.557 156.905L176.164 156.847L176.105 152.611L176.105 151.618L176.708 151.279L186.842 147.486L186.964 144.694L186.974 144.245ZM176.708 151.279L187.008 147.354L186.906 148.012L176.708 151.279Z" fill-rule="nonzero" fill="#FFFFFF"/>
	<path id="内三角_6_" d="M310.727 132.187L305.466 141.147L194.848 329.527L189.653 338.373L184.458 329.527L73.8403 141.147L68.5778 132.187L310.727 132.187ZM296.023 141.858L84.2025 141.38L189.762 323.593L291.799 149.123L296.023 141.858Z" fill-rule="nonzero" fill="#FFFFFF"/>
	<path id="内三角_6_" d="M305.466 141.147L194.848 329.527L189.653 338.373L184.458 329.527L73.8403 141.147L68.5778 132.187L310.727 132.187L305.466 141.147ZM84.2025 141.38L189.762 323.593L291.799 149.123L296.023 141.858L84.2025 141.38Z" stroke="#FFFFFF" stroke-width="0.296600"/>
	<path id="path" d="M77.0463 220.77L77.0162 237.946L74.4568 237.946L74.5043 224.271L70.1586 227.372L70.1586 224.977C73.072 222.807 73.5399 222.438 75.1777 220.797L76.8691 220.797L77.0463 220.77ZM81.5547 233.938L83.5671 233.938C83.7505 235.878 84.6958 236.851 86.4078 236.851C88.4835 236.982 89.7971 234.743 90.3473 230.126C89.6754 231.463 88.3301 232.166 86.4979 232.235C83.2035 232.097 81.4915 230.157 81.3698 226.408C81.5547 222.46 83.3252 220.387 86.6813 220.186C90.4058 220.255 92.3328 223.03 92.4545 228.521C92.2079 235.079 90.1954 238.423 86.4078 238.556C83.3552 238.421 81.7382 236.885 81.5547 233.938ZM86.8647 230.225C88.8802 230.156 89.9156 228.786 89.9789 226.107C89.8588 223.632 88.7554 222.359 86.6797 222.292C84.6041 222.43 83.5387 223.766 83.4755 226.309C83.4138 228.987 84.5441 230.292 86.8647 230.225ZM102.49 229.522C102.426 224.772 101.244 222.361 98.9453 222.292C96.582 222.292 95.4327 224.704 95.496 229.522C95.496 234.341 96.6453 236.747 98.9453 236.747C101.245 236.747 102.428 234.341 102.49 229.522ZM104.766 229.522C104.578 235.411 102.637 238.421 98.9391 238.555C95.1182 238.421 93.1769 235.411 93.1121 229.522C93.1769 223.431 95.1182 220.318 98.9391 220.184C102.637 220.318 104.578 223.431 104.766 229.522ZM107.826 225.793L105.394 225.735C105.531 221.548 107.449 220.199 111.258 220.068C114.515 220.332 116.219 222.218 116.466 225.492C116.587 227.982 114.926 229.538 112.355 231.713L110.727 233.095C109.139 234.442 108.95 234.556 108.765 235.802L116.464 235.809L116.464 237.871L105.351 237.871C105.488 234.594 106.793 233.547 109.274 231.419L111.628 229.491C113.506 228.05 114.376 227.028 114.251 225.388C114.069 223.359 113.359 222.546 111.334 222.479C109.186 222.484 108.022 222.815 107.826 225.793Z" fill-rule="evenodd" fill="#FFFFFF"/>
	<path id="东南大学_6_" d="M235.166 102.235C235.12 101.781 235.109 101.632 235.078 100.394C235.057 99.5719 235.073 99.0713 234.965 98.2961C234.651 96.0331 234.812 96.7095 234.311 95.0005C234.245 94.7729 233.961 93.0655 233.938 92.8301C233.859 92.0706 234.203 91.493 234.507 91.3299C234.978 91.0772 235.612 91.7567 235.888 92.1145C236.684 93.1393 237.035 94.095 237.142 94.7102C237.221 95.1653 237.472 97.2996 237.476 97.3388C237.553 98.4326 237.68 99.5735 237.79 100.59C237.907 101.681 237.575 101.836 238.122 102.467C238.392 102.778 238.764 102.637 238.876 102.637C239.599 102.477 239.725 101.546 239.624 100.741C239.338 98.4421 238.962 98.0827 238.712 96.6766C238.535 95.6832 238.563 95.5545 238.49 95.0602C238.434 94.6725 238.313 94.1029 238.22 92.2166C238.162 91.0098 238.206 90.9769 238.43 89.9913C238.609 89.2145 238.917 88.7452 239.259 88.6134C240.182 88.254 240.765 88.3937 240.814 88.7939C241.085 91.0302 241.123 91.2437 241.162 92.7596C241.203 94.3116 241.363 94.6271 241.402 95.5278C241.443 96.4584 241.717 97.8206 241.771 99.1796C241.834 100.757 242.147 102.764 243.288 101.256C243.699 100.713 243.345 100.065 243.434 99.3554C243.535 98.5362 243.404 98.3715 243.508 97.4706C243.683 95.9421 243.45 95.5137 243.566 93.4391C243.603 92.7941 244.147 92.441 244.126 92.295C244.087 92.022 244.091 92.0989 243.695 91.0678C243.282 89.996 243.949 85.5815 244.009 83.5649C244.03 82.8352 243.873 81.3585 244.524 80.6287C244.91 80.1972 245.554 80.4498 246.192 80.7684L246.584 81.0948C246.629 81.7084 245.467 83.0078 248.497 81.6064C249.114 81.3208 250.307 80.5989 251.219 80.9787C251.975 81.2925 251.455 82.8509 251.455 82.8776C251.428 83.0863 249.502 83.7062 248.791 84.1409C247.292 85.0558 245.185 84.3998 245.35 88.2666C245.332 88.6558 245.335 89.4781 245.305 90.2816C245.283 90.8701 246.279 89.8438 246.88 89.8438C247.179 89.8438 247.735 90.3804 247.784 90.4134C247.996 90.5562 248.402 90.9689 248.261 90.8152C248.454 91.027 248.582 91.1965 248.6 91.3189C248.68 91.9027 248.695 93.2335 249.512 92.9322C250.648 92.5132 250.108 92.7172 250.865 92.3766C251.227 92.2134 252.101 92.3907 252.703 92.2746C253.486 92.1224 253.706 90.79 253.748 90.098C253.827 88.8127 253.728 88.4738 253.249 88.083C252.575 87.5337 251.553 87.7032 250.233 88.083C248.658 88.5365 248.174 89.952 247.356 89.894C247.292 89.8893 246.714 89.7653 246.649 89.7559C246.62 89.5205 246.663 89.4562 246.828 89.1093C247.757 87.1351 253.739 83.5681 255.867 86.4399C257.029 88.0092 256.616 89.5801 256.308 91.0067C256.014 92.3704 255.568 93.3983 255.307 94.4152C255.078 95.3065 255.162 95.3693 254.992 96.3439C254.833 97.2635 254.858 97.0046 254.698 97.7924C254.586 98.3479 254.133 99.7399 254.542 99.9141C255.468 100.288 256.946 99.9078 257.749 99.7242C259.215 99.3884 261.899 100.165 262.506 100.82C263.229 101.598 261.442 103.513 260.819 103.858C260.174 103.988 258.249 105.675 257.602 105.805C256.227 106.588 256.271 106.502 254.896 107.285C253.397 107.844 251.336 106.72 252.424 107.903C253.031 108.563 252.765 109.269 252.304 110.419C251.84 110.592 250.871 111.18 250.383 111.433C249.856 112.101 249.841 112.065 249.676 112.406C249.123 113.562 247.626 115.268 248.812 115.232C251.742 115.144 251.127 118.015 251.127 118.015C251.127 118.015 252.182 117.734 253.442 117.878C254.64 118.016 255.656 117.757 256.306 117.917C257.656 118.25 258.865 119.777 259.395 120.844C259.597 121.25 259.45 121.649 259.057 121.779C258.616 121.925 258.126 122.159 257.757 121.911C256.927 121.351 256.79 120.847 256.071 120.723C254.403 120.438 251.172 120.392 251.172 120.392C251.172 120.392 250.995 122.261 250.966 122.349C250.68 123.229 249.654 124.772 249.23 125.373C248.435 126.498 246.603 127.358 245.685 127.578C241.418 128.6 239.66 125.564 240.398 121.17C240.653 119.651 241.823 118.732 243.263 118.347C244.479 118.022 246.727 118.292 246.657 117.159C246.598 116.205 246.425 116.729 245.892 116.108C244.578 114.578 245.678 114.039 246.48 113.22C246.987 112.702 246.976 112.564 247.215 112.183C247.392 111.9 247.628 111.329 247.672 111.044C247.738 110.612 247.084 110.796 246.421 110.876C244.807 111.072 244.692 111.693 243.508 111.356C243 111.212 242.591 110.847 242.831 110.49C243.342 109.73 243.276 109.647 243.842 109.38C244.554 109.043 244.773 108.912 245.701 108.401C247.03 107.668 247.492 107.422 248.231 107.364C248.771 107.561 249.506 107.808 250.239 107.677C251.608 107.433 251.526 107.296 252.762 106.34C253.791 105.546 255.336 104.371 255.94 103.749C256.061 103.624 256.664 103.25 257.358 102.492C257.503 102.334 257.53 102.227 257.52 101.909C257.517 101.769 257.549 101.661 257.468 101.485C257.388 101.309 257.051 101.267 256.578 101.433C256.27 101.543 256.093 101.601 255.778 101.758C255.725 101.785 254.929 102.199 254.877 102.226C254.511 102.416 254.351 102.427 253.997 102.601C253.135 103.028 253.33 102.963 252.338 103.141C252.142 103.175 251.546 103.451 250.901 103.663C250.361 103.842 250.098 104.423 249.804 103.784C249.687 103.528 249.583 103.288 249.649 102.944C249.716 102.596 249.789 102.66 249.828 102.287C249.841 102.174 249.812 101.957 249.7 101.929C249.514 101.882 249.869 101.982 249.281 101.827C248.867 101.717 248.192 102.177 248.268 102.125C248.834 101.741 247.993 102.403 247.316 102.477C246.957 102.516 246.758 102.85 246.463 103.126C246.006 103.555 245.653 103.754 245.198 103.82C244.517 103.919 244.491 103.47 243.726 103.265C242.974 103.064 242.177 103.479 241.671 103.936C241.369 104.208 241.475 104.17 240.768 104.423C240.557 104.498 240.003 104.598 239.156 104.302C238.607 104.11 238.982 103.985 237.865 103.985C237.257 103.985 237.084 104.209 236.14 103.878C235.768 103.748 235.474 103.442 235.327 103.126L235.166 102.235ZM126.952 82.672C128.391 82.6469 129.675 83.5508 130.073 84.5269C130.514 85.6082 130.367 85.9974 130.367 86.7177C130.367 87.5212 130.32 88.3497 130.278 88.7045C130.21 89.2914 130.192 89.5079 130.278 90.3553C130.342 90.9721 131.183 91.0851 131.72 91.5779C132.258 92.0691 132.375 93.0468 132.093 93.7781C131.832 94.2316 131.404 94.5093 130.976 94.6741C130.357 94.9111 129.776 95.0304 129.981 96.1289C130.133 96.245 130.286 96.3611 130.44 96.4773C131.579 96.7582 132.773 96.3455 133.644 96.1744C135.527 95.8041 136.649 95.6377 138.331 95.5215C139.118 95.3709 140.26 95.2595 141.178 95.181C142.171 95.7052 143.492 98.0372 142.727 99.7571C141.547 102.369 137.082 104.019 135.174 106.184C134.573 106.866 133.952 107.386 133.467 107.976C132.732 108.87 132.016 109.308 131.081 110.019C130.395 110.54 129.69 110.837 129.161 111.519C128.764 111.78 128.679 112.105 128.2 112.63C127.649 113.233 127.691 116.883 127.719 117.927C127.759 119.388 127.661 120.853 127.763 122.079C127.785 122.335 128.029 122.796 128.234 123.496C128.301 123.724 128.358 124.612 128.351 124.927C128.351 124.927 128.503 126.009 128.268 126.709C128.073 127.286 127.098 127.589 126.639 127.994C126.303 127.966 125.7 127.925 125.364 127.897C124.523 127.515 123.659 126.715 122.97 126.202C121.781 125.318 120.645 125.511 120.42 123.904C120.327 123.236 120.416 123.437 120.607 123.176C120.646 123.121 121.468 123.196 121.53 123.168C122.591 123.181 123.323 123.269 124.284 123.217C125.383 123.159 125.109 122.249 125.228 121.352C125.323 120.634 125.228 120.417 125.188 119.308C125.163 118.595 125.24 117.917 124.75 117.396C122.444 119.06 117.712 123.625 113.741 122.952C113.71 122.661 113.68 122.373 113.65 122.084C115.412 121.205 116.666 119.923 118.054 118.699C121.031 116.075 121.671 115.522 124.54 112.246C124.576 112.205 124.591 112.023 124.581 111.635C124.576 111.456 124.633 110.92 124.562 110.895C124.18 110.763 124.265 110.83 123.974 110.846C123.206 110.887 123.541 110.88 122.453 110.973C120.299 111.155 117.422 112.406 116.402 111.012C115.88 110.3 115.986 109.31 115.833 108.442C115.502 107.808 115.256 106.701 114.753 106.047C114.337 105.505 113.163 104.66 112.916 104.115C112.64 103.506 113.201 103.134 113.375 102.9C115.392 102.32 116.256 103.352 117.613 103.968C118.191 104.23 119.085 103.974 119.761 103.938C120.865 103.88 121.747 103.814 122.346 103.701C124.251 103.343 125.213 103.087 125.175 102.039C125.166 101.794 125.217 101.909 125.205 101.235C125.202 101.039 125.196 100.785 125.131 100.68C125.098 100.625 124.668 100.562 124.483 100.636C123.555 101.005 123.223 101.104 122.437 101.162C120.245 101.322 118.62 101.556 117.184 100.314C116.728 99.9203 116.947 99.2031 116.979 98.9708C117.041 98.8846 117.905 98.803 118.008 98.7809C120.82 98.2003 120.006 98.4357 121.479 98.1375C122.109 98.0104 125.191 98.2035 125.167 97.0469C125.153 96.3469 125.326 95.4556 124.968 95.1652C124.186 94.5266 124.032 95.0491 123.026 95.0742C121.677 95.1072 120.199 95.1166 118.787 93.4359C118.787 92.7987 118.903 92.7312 119.154 92.3938C120.999 92.1176 122.725 92.014 123.805 91.8571C124.62 91.7379 125.183 91.6986 125.216 91.0976C125.297 89.6664 125.251 88.3795 125.275 87.7377C125.31 86.8055 125.273 87.0205 123.833 84.9913C123.732 84.8501 123.74 84.0592 123.74 83.885C123.874 83.7076 124.13 83.3326 124.334 83.2086C125.198 82.7363 126.189 83.1475 126.952 82.672ZM202.479 92.1789C202.484 92.0063 202.519 88.7578 202.558 88.6354C202.671 88.2823 202.671 87.9198 202.807 87.7833L202.952 87.6216C204.062 87.0896 204.549 87.5588 204.844 88.0908C205.127 88.8786 205.051 91.6281 205.031 92.259C204.968 94.2457 204.991 94.343 204.952 95.804C204.928 96.7095 205.107 98.9317 205.129 99.6599C205.151 100.412 205.205 100.987 205.285 101.315C205.385 101.724 205.527 102.108 206.188 102.23C207.66 102.503 208.634 102.24 211.073 101.237C213.016 100.438 213.727 100.449 214.898 99.4841C215.703 98.8218 215.741 97.9289 216.22 97.863C217.037 97.7515 217.238 98.1595 217.508 98.1595C217.968 98.7527 219.138 101.653 218.822 102.483C218.618 102.921 218.618 102.921 217.834 103.109C215.912 103.569 215.025 103.655 213.27 104.236C212.549 104.474 212.073 104.581 211.327 104.879C210.191 105.333 210.061 105.463 208.741 105.812C206.612 106.373 203.766 106.535 203.734 108.658C203.704 110.742 203.793 110.294 203.48 112.046C203.336 112.853 203.142 113.832 202.816 114.769C202.527 115.601 202.484 116.274 202.068 117.051C200.889 119.256 200.608 119.612 198.459 120.284C196.259 120.973 193.462 121.511 192.019 120.631C191.913 120.266 191.863 120.064 191.937 119.648C192.855 118.531 194.496 118.002 195.693 117.333C196.988 116.612 197.547 116.273 198.625 114.636C199.204 113.758 200.22 111.543 200.489 110.527C200.672 109.834 200.967 108.809 200.997 108.213C201.033 107.489 201.09 107.641 200.982 106.861C199.67 106.209 197.851 106.278 196.369 105.62C195.585 105.272 194.555 104.416 194.104 103.633C193.369 102.357 193.752 103.566 193.232 104.314C193.02 104.62 192.79 104.035 192.457 103.749C192.12 103.462 191.328 103.409 191.221 103.145C191.115 102.888 190.947 102.292 191.162 102.113C191.633 101.723 192.231 101.684 192.723 102.229C193.318 102.891 193.807 103.276 194.577 102.755C195.01 102.461 196.166 102.558 196.548 102.565C197.166 102.574 198.383 102.643 198.932 102.623C199.484 102.602 200.088 102.695 200.639 102.657C201.664 102.588 201.727 102.791 202.002 102.006C202.58 100.358 202.381 99.8889 202.345 98.0513L202.479 92.1789ZM178.977 111.245C179.161 110.62 179.409 108.869 179.565 107.954C179.719 107.059 179.826 105.666 179.831 104.438C179.836 102.984 179.444 102.653 178.875 102.637C176.255 102.563 173.939 102.241 171.63 102.692C170.487 102.915 170.346 102.919 169.856 103.037C169.756 103.061 169.491 103.282 169.495 103.382C169.524 104.09 169.532 103.828 169.541 104.278C169.546 104.501 169.568 105.711 169.369 105.815C168.9 106.056 167.48 106.712 166.941 107.59C166.707 107.971 166.484 108.071 166.735 108.539C166.851 108.756 167.649 108.522 168.104 108.247C169.19 107.588 169.668 107.087 171.021 107.034C171.369 107.284 171.717 107.535 172.064 107.784C172.036 107.924 172.006 108.064 171.977 108.202C171.393 109.165 168.207 109.173 167.041 110.311C167.069 110.562 167.055 110.924 167.044 111.445C167.031 112.059 166.759 112.53 167.338 112.76C168.168 112.651 168.289 112.163 169.192 112.075C169.454 112.214 170.005 112.139 170.265 112.279C170.382 112.641 170.382 112.641 170.177 113.214C169.884 114.036 169.772 114.003 169.5 114.134C168.647 114.543 167.844 114.327 167.044 114.717C166.693 116.594 167.354 119.064 166.519 121.042C165.91 122.482 166.079 122.569 164.903 123.86C164.418 124.394 163.384 125.27 162.983 125.189C162.679 125.128 161.772 124.819 161.772 124.041C161.772 123.19 162.105 123.65 162.537 123.242C163.191 122.622 163.28 122.31 163.702 121.324C163.854 120.971 163.898 120.684 164.088 120.088C164.224 119.662 164.435 119.086 164.407 118.641C164.5 118.252 164.404 118.134 164.44 117.478C164.479 116.797 164.16 116.149 163.601 116.281C162.861 116.456 162.349 116.748 161.128 116.806C160.314 116.845 159.269 117.029 158.833 116.456C158.828 115.92 158.857 115.953 159.038 115.653C160.554 115.293 161.718 114.945 163.025 114.587C163.62 114.424 163.928 114.46 164.272 114.121C164.53 113.867 164.39 113.643 164.38 113.332C164.35 112.387 164.307 111.452 164.307 111.452C164.307 111.452 162.529 112.109 161.569 112.616C160.82 113.013 160.448 113.194 159.568 112.586C159.038 112.221 159.106 111.966 159.215 111.711C159.451 111.155 159.304 111.039 159.23 110.162C159.075 108.326 158.019 108.516 157.184 107.751C157.02 107.601 156.699 107.313 156.757 106.865C156.907 105.714 158.509 105.101 159.103 104.329C159.576 103.715 159.735 103.459 160.184 102.612C160.433 102.144 160.689 101.532 160.905 101.049C161.417 99.9141 162.583 97.9525 162.436 96.1697C162.394 95.6644 161.838 95.0446 161.465 94.9583C160.493 94.7307 160.056 94.6334 159.302 94.8845C158.501 95.1528 157.944 95.3772 157.081 94.6648C156.375 94.0825 156.035 93.4156 156.571 93.0908C157.412 92.791 159.005 93.0421 159.818 93.0436C161.218 93.0468 161.669 92.9714 162.687 93.0076C163.106 93.0217 163.046 92.8694 163.062 92.554C163.114 91.5104 162.964 89.6241 163.092 88.6684C163.12 88.4534 162.994 88.0564 163.193 87.9293C163.42 87.7833 164.007 87.4616 164.284 87.5668C165.2 87.9136 166.931 89.2365 166.076 88.5711C166.011 88.5209 166.696 88.9509 166.625 89.4562C166.459 90.6442 166.114 90.707 166.174 91.7144C166.225 92.5839 166.399 92.8145 167.851 92.3955C169.047 92.0519 170.469 91.2546 171.514 91.1589C171.969 91.3802 172.183 91.7992 172.03 92.2841C171.573 93.7153 170.583 93.8535 169.19 94.2599C168.379 94.4953 167.667 94.5895 166.953 94.839C166.019 95.1669 166.149 95.0289 165.733 95.4227C164.821 96.2843 164.884 96.9717 164.604 97.8175C164.257 98.8737 163.896 99.627 163.525 100.564C163.354 100.997 163.12 101.838 162.929 102.303C162.703 102.85 162.134 104.238 161.927 104.547C161.511 105.165 161.661 104.985 161.278 105.637C161.127 105.896 161.135 106.504 161.435 106.472C162.258 106.384 162.358 106.471 162.973 106.061C163.466 105.735 164.642 104.868 164.834 105.143C165.291 105.793 164.323 106.595 163.833 107.218C163.37 107.805 162.594 108.415 162.436 108.605C162.328 108.734 162.036 110.083 162.813 109.722L164.538 108.266C165.76 107.488 167.12 104.977 166.761 104.034C166.451 103.411 166.342 103.304 166.312 102.668C166.302 102.474 166.497 102.099 166.775 101.865C167.018 101.661 167.474 101.507 167.532 101.477C171.691 100.702 172.414 101.05 176.186 100.281C176.824 100.281 177.986 100.052 178.618 99.9691C180.675 99.6992 181.783 99.2614 182.423 101.391C183.268 104.195 183.291 105.149 183.012 107.389C182.866 108.55 182.582 109.755 182.24 110.874C181.911 111.951 181.774 112.646 181.56 113.329C181.336 114.049 181.148 114.73 180.776 115.76C180.476 116.59 180.057 117.803 179.54 118.937C178.762 120.642 178.013 122.76 175.735 122.851C173.806 121.935 172.161 120.326 170.887 118.748C170.71 118.528 170.589 117.927 170.953 117.872C172.093 117.696 174.854 118.446 175.911 117.74C176.94 117.053 177.3 116.171 177.882 114.63L178.977 111.245ZM243.989 92.5399C244.548 92.9981 244.774 93.155 244.773 93.4453C244.771 95.09 244.708 97.5569 244.596 98.8594C244.547 99.4276 245.875 98.4342 245.979 98.1392C246.197 97.5208 246.619 97.0751 246.676 95.9578C246.716 95.159 246.693 94.7306 246.695 94.1656C246.698 93.5677 246.738 93.1581 246.263 93.133L245.342 92.86L243.989 92.5399ZM252.807 93.6697C252.255 94.0056 252.397 94.1578 251.795 94.6113C251.524 94.8138 250.672 95.4855 250.159 95.7444C249.68 95.9861 249.73 95.8135 249.496 95.4965C248.873 95.2892 248.643 95.3866 248.614 96.0661C248.575 96.9888 248.511 97.0594 248.526 97.739C248.538 98.3541 248.483 98.4468 248.518 99.0901C248.524 99.2078 248.598 100.471 248.696 100.536C249.329 100.955 250.105 100.648 250.707 100.575C252.909 100.302 251.977 98.8312 250.992 98.7245C249.932 98.6099 249.814 98.5487 249.853 97.4392C249.855 97.4125 249.692 96.5541 249.863 96.2638C250.176 95.7318 250.099 95.7789 250.687 95.4243C251 95.2359 251.548 95.0869 251.727 95.3458C251.872 95.556 251.752 96.0535 251.766 96.4066C251.787 96.959 251.747 98.0905 252.266 97.6338C252.65 97.2949 252.982 96.5573 253.344 95.6078C253.659 94.7855 253.769 94.5611 253.723 93.8973C253.701 93.5756 253.481 93.5583 253.341 93.5316L252.807 93.6697ZM132.917 99.2094C131.266 99.4291 128.68 98.6052 128.914 101.312C128.996 102.257 129.573 101.998 130.15 101.975C131.056 101.937 131.954 101.781 132.357 102.16C132.563 102.353 132.705 102.803 132.71 103.221C132.716 103.716 132.28 104.241 132.15 104.369C131.924 104.594 131.608 104.443 131.287 104.448C130.101 104.462 128.876 104.154 128.952 105.149C129.044 106.348 129.011 107.794 130.476 106.668C131.927 105.554 136.075 102.064 137.043 100.476C137.553 99.6378 137.504 98.9222 137.289 98.7998C136.727 98.5252 135.976 98.6633 135.034 98.8579L132.917 99.2094ZM230.158 102.987C231.061 102.656 231.785 104.385 231.884 105.032C232.148 106.758 231.756 107.958 230.892 110.246C230.376 111.609 226.808 112.723 226.706 111.555C226.43 108.439 228.108 108.249 228.74 106.364C229.1 105.295 229.129 104.559 229.53 103.765L230.158 102.987ZM123.569 105.675C121.244 105.895 120.465 105.339 119.832 106.201C119.524 106.621 119.33 107.204 119.347 107.574C119.372 108.112 119.273 108.826 119.995 108.903C121.453 109.057 122.085 109.019 123.807 108.845C124.695 108.754 125.027 108.391 125.182 107.451C125.253 107.017 125.176 106.974 125.194 106.24C125.198 106.105 125.267 105.717 125.043 105.691L123.569 105.675ZM152.054 106.012C152.345 106.012 152.663 105.892 152.927 106.012C153.554 106.298 154.261 107.662 154.378 108.362C154.727 110.443 154.465 111.025 154.408 112.013C154.343 113.106 154.419 113.333 154.497 113.952C154.644 115.14 155.278 115.695 155.259 116.329C155.222 117.476 155.458 117.34 154.536 118.838C154.222 119.348 153.616 118.777 153.398 118.449C152.898 117.696 152.898 117.696 152.418 116.935C151.76 115.893 150.631 115.544 151.103 113.329C151.574 111.114 151.578 112.577 151.574 110.895C151.566 108.95 150.935 107.268 152.054 106.012ZM210.083 112.439C210.385 112.316 211.209 112.55 211.817 112.861C212.371 113.145 212.518 113.405 213.112 113.796C213.51 114.058 213.875 114.256 214.309 114.458C214.936 114.75 215.243 115.022 215.486 115.334C216.15 115.794 216.577 116.238 217.056 116.863C217.564 117.525 218.03 118.324 218.409 119.141C218.689 119.744 219.263 121.255 218.88 122.442C218.817 122.638 218.071 123.192 217.937 123.349C217.666 123.322 217.396 123.297 217.124 123.27C215.698 122.602 213.877 121.74 213.142 120.397C212.548 119.311 212.224 117.597 211.67 115.985L210.083 112.439ZM132.986 115.927C135.571 116.357 137.207 117.031 139.156 117.574C141.314 118.171 142.261 118.543 142.373 120.066C142.459 121.218 142.179 121.884 141.344 123.317C140.593 124.607 139.914 124.38 139.381 124.171C139.066 124.049 138.897 123.834 138.668 123.535C138.08 122.776 138.099 121.458 138.05 121.243C137.756 119.928 134.73 118.969 133.046 117.953C132.145 117.41 131.126 117.037 131.73 116.05C131.783 116.025 131.945 115.83 132.567 115.868L132.986 115.927ZM246.686 120.417C245.941 120.403 245.519 120.262 244.439 120.456C243.339 120.654 243.037 121.021 242.183 121.781C240.731 123.074 242.444 126.864 244.714 126.162C245.764 125.838 247.01 124.956 247.264 123.203C247.349 122.616 247.294 121.246 247.294 120.447L246.686 120.417Z" fill-rule="evenodd" fill="#FFFFFF"/>
	<path id="大礼堂正面_6_" d="M153.892 225.606L155.593 225.606L155.593 202.166C178.655 202.166 201.718 202.166 224.782 202.166L224.782 225.606L227.71 225.625L227.691 228.797L152.361 228.742L152.39 225.602L153.892 225.606ZM152.635 231.612L227.808 231.612L227.808 237.685L152.635 237.685L152.635 231.612ZM225.218 240.48L225.218 257.46L217.068 257.46L217.098 245.976L207.916 245.954L207.916 257.46L194.734 257.46L194.734 245.967L185.905 246.094L185.963 257.462L172.31 257.462L172.307 245.981L163.541 246.153L163.599 257.462L155.379 257.462L155.379 240.482C178.658 240.48 201.939 240.48 225.218 240.48ZM224.907 190.785L190.341 179.266L155.774 190.785L224.907 190.785ZM183.056 207.023L183.056 225.354L196.749 225.354L196.749 207.023L183.056 207.023ZM176.785 225.355L176.785 207.024L163.092 207.024L163.092 225.355L176.785 225.355ZM203.49 207.023L203.49 225.354L217.183 225.354L217.183 207.023L203.49 207.023ZM155.776 193.815L224.907 193.815L224.907 198.925L155.776 198.925L155.776 193.815Z" fill-rule="evenodd" fill="#FFFFFF"/>
	<ellipse id="左点_6_" cx="78.427856" cy="294.408508" rx="4.766182" ry="4.731512" fill="#FFFFFF"/>
	<path id="path" d="M32.2189 246.911L40.3237 243.422L40.6257 244.16C38.7145 245.332 37.4119 246.851 36.7179 248.714C36.0239 250.577 35.9987 252.3 36.6436 253.882C37.1431 255.104 37.8672 255.941 38.8157 256.388C39.7657 256.837 40.6683 256.889 41.5251 256.544C42.069 256.325 42.5005 256.005 42.8198 255.583C43.2467 255.007 43.5802 254.224 43.8221 253.234C43.9912 252.51 44.1667 250.925 44.3501 248.48C44.5983 245.059 45.1484 242.599 45.9973 241.1C46.8525 239.612 48.0887 238.543 49.7075 237.892C51.7594 237.067 53.8492 237.151 55.9771 238.145C58.1033 239.138 59.6667 240.858 60.6642 243.303C60.9772 244.071 61.1938 244.827 61.3171 245.572C61.4388 246.319 61.4926 247.296 61.4784 248.501C61.472 249.172 61.5448 249.695 61.6965 250.067C61.823 250.379 62.0791 250.66 62.4615 250.91C62.8457 251.161 63.3279 251.294 63.9113 251.311L64.1831 251.977L54.91 255.706L54.6382 255.04C57.0315 253.465 58.606 251.649 59.3632 249.593C60.1205 247.537 60.1442 245.641 59.4343 243.903C58.8857 242.561 58.0828 241.638 57.0204 241.138C55.9597 240.637 54.9385 240.582 53.9615 240.976C53.3813 241.21 52.8818 241.588 52.4645 242.112C52.0455 242.636 51.72 243.308 51.4844 244.127C51.2505 244.948 51.0623 246.307 50.9232 248.204C50.7303 250.863 50.4442 252.834 50.0664 254.116C49.6902 255.398 49.1305 256.49 48.3892 257.396C47.6477 258.301 46.704 258.984 45.5579 259.445C43.6008 260.231 41.6438 260.189 39.6866 259.315C37.728 258.442 36.3069 256.92 35.4216 254.751C35.0991 253.96 34.8826 253.155 34.7719 252.333C34.6865 251.712 34.6754 250.917 34.7372 249.951C34.8003 248.984 34.764 248.339 34.6328 248.016C34.5048 247.704 34.3087 247.498 34.0432 247.394C33.7776 247.291 33.2433 247.311 32.4434 247.451L32.2189 246.911Z" fill-rule="nonzero" fill="#FFFFFF"/>
	<path id="path" d="M24.6819 217.639C23.8251 213.534 24.4685 209.973 26.6105 206.958C28.754 203.944 31.7639 202.111 35.6433 201.461C38.9567 200.905 42.0361 201.381 44.8816 202.884C48.655 204.876 50.9377 208.198 51.7281 212.853C52.5217 217.52 51.5432 221.396 48.7894 224.48C46.6143 226.917 43.7988 228.423 40.3431 229.002C36.4637 229.652 33.0081 228.885 29.9729 226.697C26.9441 224.509 25.1782 221.49 24.6819 217.639ZM25.877 217.203C26.2802 219.576 27.8087 221.175 30.4583 222.003C32.6334 222.675 35.5958 222.697 39.3472 222.068C43.8051 221.321 46.9668 219.991 48.8352 218.078C50.141 216.744 50.6279 215.103 50.2959 213.152C50.073 211.839 49.5656 210.795 48.772 210.023C47.7603 209.039 46.298 208.385 44.3868 208.063C42.4756 207.741 40.068 207.823 37.1656 208.309C33.71 208.888 31.1791 209.64 29.5745 210.564C27.9684 211.49 26.895 212.506 26.3575 213.612C25.8185 214.718 25.6572 215.914 25.877 217.203Z" fill-rule="nonzero" fill="#FFFFFF"/>
	<path id="path" d="M22.7339 190.592L23.665 177.044L24.3875 177.092L24.34 177.77C24.2689 178.79 24.329 179.497 24.5171 179.892C24.7052 180.287 24.9818 180.578 25.3485 180.765C25.7153 180.951 26.6511 181.096 28.1593 181.198L41.103 182.073C43.468 182.233 45.0472 182.163 45.8376 181.86C46.6296 181.557 47.3062 181.017 47.869 180.237C48.4318 179.459 48.7559 178.45 48.8412 177.212C48.9392 175.793 48.7006 174.561 48.1251 173.517C47.5497 172.474 46.715 171.666 45.6179 171.093C44.5208 170.52 42.5701 170.137 39.7626 169.947L28.9829 169.218C27.8004 169.138 26.9468 169.203 26.4236 169.414C25.9003 169.624 25.5272 169.911 25.3075 170.271C24.9692 170.831 24.7621 171.641 24.6893 172.698L23.9669 172.65L24.5914 163.573L25.3123 163.621L25.2759 164.163C25.2253 164.899 25.3328 165.522 25.5984 166.032C25.8639 166.542 26.2876 166.928 26.8694 167.187C27.274 167.383 28.0154 167.518 29.0935 167.59L39.1333 168.27C42.2396 168.48 44.467 168.835 45.817 169.335C47.1671 169.834 48.3654 170.911 49.415 172.563C50.4631 174.216 50.8947 176.403 50.7065 179.125C50.55 181.395 50.1249 183.13 49.4292 184.327C48.4807 185.962 47.3331 187.083 45.9862 187.692C44.6394 188.3 42.8673 188.531 40.6699 188.382L27.7261 187.505C26.2053 187.403 25.2537 187.422 24.8728 187.564C24.4918 187.707 24.1757 187.977 23.9258 188.376C23.676 188.774 23.5195 189.528 23.4563 190.639L22.7339 190.592Z" fill-rule="nonzero" fill="#FFFFFF"/>
	<path id="path" d="M32.7374 129.048L39.6061 131.094L39.4037 131.763C37.6996 131.687 36.427 131.788 35.5892 132.064C34.7513 132.34 33.9973 132.839 33.3318 133.558C32.9651 133.963 32.603 134.752 32.2473 135.929L31.6798 137.806L51.2567 143.639C52.5546 144.025 53.3877 144.196 53.7545 144.151C54.1212 144.105 54.4895 143.911 54.8595 143.569C55.2278 143.227 55.5219 142.696 55.7384 141.977L55.9913 141.141L56.6837 141.346L52.6953 154.538L52.0029 154.333L52.2559 153.496C52.4772 152.766 52.5231 152.139 52.3966 151.614C52.3191 151.241 52.0962 150.897 51.7279 150.585C51.4702 150.359 50.7051 150.058 49.4325 149.678L29.8556 143.845L29.3054 145.665C28.7917 147.362 28.7822 148.702 29.2722 149.686C29.9568 151.065 31.1914 152.175 32.9777 153.017L32.7643 153.724L25.8956 151.677L32.7374 129.048Z" fill-rule="nonzero" fill="#FFFFFF"/>
	<path id="path" d="M55.5092 116.512L62.6134 120.592C63.7864 121.266 64.5563 121.622 64.9246 121.663C65.293 121.702 65.696 121.598 66.1355 121.349C66.5734 121.101 66.9796 120.657 67.3512 120.018L67.7922 119.263L68.4182 119.622L61.48 131.527L60.854 131.168L61.295 130.413C61.6792 129.752 61.8721 129.153 61.8689 128.615C61.88 128.233 61.7408 127.854 61.4484 127.477C61.2491 127.198 60.5742 126.728 59.4249 126.068L44.3375 117.403C43.1646 116.73 42.3962 116.371 42.0311 116.325C41.6659 116.28 41.2644 116.382 40.825 116.63C40.3871 116.879 39.9823 117.322 39.6093 117.961L39.1682 118.715L38.5422 118.356L45.4805 106.451L46.1064 106.811L45.6654 107.565C45.2812 108.226 45.09 108.826 45.0916 109.365C45.0804 109.747 45.218 110.131 45.5026 110.52C45.7018 110.8 46.3767 111.269 47.526 111.93L54.0216 115.66L58.7087 107.617L52.2147 103.887C51.0417 103.214 50.2734 102.854 49.9083 102.809C49.5431 102.763 49.14 102.868 48.699 103.123C48.2563 103.377 47.8501 103.823 47.4785 104.461L47.047 105.2L46.421 104.841L53.3481 92.9535L53.9741 93.3129L53.5426 94.052C53.1506 94.7237 52.9609 95.3231 52.9688 95.8505C52.9576 96.2318 53.0936 96.6179 53.3798 97.0054C53.579 97.2848 54.2539 97.754 55.4032 98.4147L70.4906 107.079C71.6636 107.752 72.4335 108.112 72.797 108.157C73.1622 108.203 73.5653 108.097 74.0079 107.843C74.449 107.589 74.8569 107.143 75.2284 106.505L75.6599 105.765L76.2859 106.125L69.3588 118.012L68.7328 117.653L69.1643 116.914C69.5564 116.242 69.7477 115.643 69.7382 115.115C69.7507 114.734 69.6133 114.348 69.3271 113.96C69.1279 113.681 68.453 113.212 67.3037 112.551L60.1995 108.471L55.5092 116.512Z" fill-rule="nonzero" fill="#FFFFFF"/>
	<path id="path" d="M68.7249 77.5898L76.5609 84.9468L76.923 84.5655C78.077 83.3539 78.5306 82.1158 78.2841 80.8509C78.0359 79.5861 77.236 78.1768 75.8844 76.6216L76.395 76.0864L86.4744 85.5494L85.9637 86.0845C84.7592 85.1665 83.6335 84.5608 82.5886 84.2642C81.5437 83.9691 80.6711 83.9471 79.974 84.1998C79.2769 84.4525 78.4927 85.0347 77.6249 85.9465L83.0487 91.0389C84.1094 92.0338 84.8002 92.5988 85.1211 92.7306C85.442 92.864 85.7961 92.8797 86.1803 92.7761C86.5645 92.6741 87.015 92.3508 87.535 91.8063L88.6227 90.6639C90.3236 88.8795 91.2689 87.0576 91.4618 85.1995C91.6531 83.3414 91.1219 81.3782 89.8652 79.3098L90.3616 78.7888L95.6605 85.3941L79.925 101.913L79.4001 101.42L80.004 100.786C80.532 100.232 80.8577 99.6921 80.981 99.168C81.0806 98.7992 81.0332 98.3975 80.8372 97.9643C80.7091 97.6473 80.1621 97.0368 79.1963 96.1298L66.5322 84.2406C65.6613 83.423 65.1047 82.9443 64.8613 82.8047C64.4408 82.5881 64.0187 82.5222 63.5967 82.6069C62.9912 82.7152 62.3937 83.0793 61.8024 83.6992L61.1985 84.3332L60.6737 83.8405L75.9128 67.8444L81.6069 73.1895L81.0964 73.7247C79.446 72.692 78.0834 72.1365 77.0068 72.0612C75.9319 71.9858 74.822 72.2652 73.6792 72.9008C73.0073 73.268 71.9813 74.1735 70.6045 75.6204L68.7249 77.5898Z" fill-rule="nonzero" fill="#FFFFFF"/>
	<path id="path" d="M109.682 64.1189L101.883 69.2537L102.379 71.9984C102.55 72.9102 102.792 73.5976 103.1 74.0605C103.511 74.6741 104.063 74.9629 104.757 74.9252C105.164 74.9048 105.974 74.5596 107.182 73.8879L107.582 74.4858L100.237 79.3209L99.8372 78.723C100.55 78.0826 100.985 77.3278 101.138 76.4584C101.292 75.5891 101.186 74.0731 100.819 71.909L97.0327 49.2167L97.3425 49.0126L117.315 61.7476C119.212 62.9513 120.552 63.612 121.336 63.7313C121.929 63.8223 122.579 63.6732 123.289 63.284L123.689 63.8819L113.005 70.914L112.605 70.3161L113.045 70.0273C113.902 69.4624 114.427 68.9477 114.615 68.4816C114.738 68.152 114.692 67.8256 114.476 67.5023C114.346 67.3077 114.18 67.1304 113.978 66.9688C113.891 66.8871 113.459 66.589 112.68 66.0774L109.682 64.1189ZM108.329 63.2872L99.9968 57.9028L101.653 67.6828L108.329 63.2872Z" fill-rule="nonzero" fill="#FFFFFF"/>
	<path id="path" d="M137.259 30.1808L140.648 38.2801L139.901 38.5673C138.748 36.6527 137.24 35.3361 135.375 34.6173C133.509 33.8986 131.775 33.8483 130.171 34.4635C128.931 34.939 128.078 35.6452 127.611 36.5805C127.145 37.5158 127.078 38.4119 127.412 39.2672C127.622 39.8102 127.938 40.2433 128.359 40.5666C128.933 40.9981 129.715 41.3418 130.71 41.5976C131.435 41.7765 133.029 41.9758 135.489 42.194C138.93 42.4937 141.399 43.0775 142.896 43.9438C144.382 44.8163 145.44 46.0592 146.069 47.6756C146.869 49.7252 146.752 51.7998 145.718 53.8948C144.684 55.9914 142.928 57.5152 140.451 58.4678C139.673 58.766 138.908 58.97 138.154 59.0798C137.4 59.1897 136.416 59.2274 135.202 59.1944C134.526 59.1771 133.998 59.2415 133.622 59.3858C133.305 59.5067 133.019 59.7562 132.76 60.1328C132.502 60.5095 132.36 60.9865 132.333 61.5656L131.658 61.8245L128.048 52.5624L128.721 52.3035C130.272 54.703 132.075 56.2943 134.134 57.0774C136.192 57.8605 138.102 57.9138 139.864 57.2374C141.225 56.7149 142.166 55.9302 142.688 54.8835C143.208 53.8383 143.279 52.8261 142.898 51.8484C142.672 51.2693 142.299 50.7687 141.777 50.345C141.255 49.9213 140.583 49.587 139.761 49.3406C138.939 49.0958 137.574 48.8887 135.666 48.7208C132.989 48.4869 131.01 48.1731 129.725 47.7792C128.44 47.3853 127.347 46.814 126.448 46.0639C125.548 45.3138 124.875 44.3675 124.427 43.2203C123.666 41.2665 123.74 39.3253 124.649 37.395C125.559 35.4647 127.113 34.0775 129.312 33.2316C130.114 32.924 130.929 32.7216 131.758 32.6243C132.385 32.549 133.185 32.5505 134.159 32.6274C135.133 32.7043 135.782 32.6792 136.111 32.5536C136.427 32.4329 136.639 32.2398 136.745 31.9777C136.853 31.7156 136.842 31.1852 136.712 30.3896L137.259 30.1808Z" fill-rule="nonzero" fill="#FFFFFF"/>
	<path id="path" d="M174.284 22.3342L175.416 29.3647L174.722 29.4746C174.049 27.9178 173.406 26.8256 172.789 26.1963C172.172 25.567 171.393 25.1119 170.451 24.8294C169.924 24.6772 169.05 24.6976 167.83 24.8922L165.881 25.2014L169.109 45.2368C169.324 46.566 169.531 47.3837 169.732 47.6912C169.932 48.0004 170.269 48.2452 170.74 48.4257C171.211 48.6061 171.82 48.6375 172.566 48.5182L173.434 48.3802L173.548 49.0895L159.848 51.2646L159.734 50.5552L160.602 50.4172C161.361 50.2963 161.951 50.0656 162.37 49.7235C162.675 49.4913 162.89 49.1429 163.013 48.6783C163.105 48.3488 163.046 47.5328 162.836 46.2302L159.608 26.1948L157.717 26.4945C155.955 26.7738 154.734 27.3482 154.056 28.2145C153.103 29.426 152.633 31.0141 152.646 32.9758L151.912 33.0919L150.781 26.0629L174.284 22.3342Z" fill-rule="nonzero" fill="#FFFFFF"/>
	<path id="南京" d="M296.539 224.506L301.201 224.506L302.137 223.337C302.137 223.337 303.218 224.146 303.886 224.761C303.847 224.959 303.666 225.047 303.416 225.047L287.736 225.047L287.578 224.506L296.143 224.506C296.073 224.489 295.98 224.454 295.91 224.418C295.567 223.535 294.508 222.494 293.643 221.936L293.805 221.773C297.277 222.221 297.404 224.238 296.539 224.506ZM278.253 224.401L283.219 224.401L284.137 223.25C284.137 223.25 285.183 224.041 285.847 224.634C285.794 224.832 285.614 224.924 285.346 224.924L278.253 224.924L278.253 227.262L283.039 227.262L283.671 226.523L285.166 227.657C285.056 227.802 284.77 227.965 284.392 228.018L284.392 236.71C284.392 237.646 284.172 238.261 282.445 238.441C282.393 238.063 282.283 237.738 282.015 237.558C281.707 237.36 281.241 237.198 280.358 237.088L280.358 236.82C280.358 236.82 282.34 236.982 282.771 236.982C283.113 236.982 283.219 236.837 283.219 236.569L283.219 227.785L272.404 227.785L272.404 237.989C272.404 238.134 271.916 238.441 271.428 238.441L271.231 238.441L271.231 226.651L272.527 227.262L277.084 227.262L277.084 224.924L269.846 224.924L269.684 224.401L277.084 224.401L277.084 221.843L278.899 222.041C278.881 222.296 278.701 222.476 278.253 222.529L278.253 224.401ZM299.619 232.447L299.619 231.691L296.358 231.691L296.358 236.675C296.358 237.611 296.108 238.244 294.328 238.384C294.271 238.024 294.148 237.738 293.875 237.541C293.59 237.36 293.049 237.198 292.113 237.088L292.113 236.837C292.113 236.837 294.271 236.982 294.688 236.982C295.066 236.982 295.172 236.89 295.172 236.64L295.172 231.691L291.841 231.691L291.841 232.232C291.841 232.355 291.322 232.627 290.834 232.627L290.654 232.627L290.654 226.453L291.951 227.046L299.439 227.046L300.102 226.291L301.597 227.459C301.491 227.604 301.166 227.75 300.806 227.82L300.806 232.052C300.788 232.175 300.212 232.447 299.799 232.447L299.619 232.447ZM291.841 227.569L291.841 231.151L299.619 231.151L299.619 227.569L291.841 227.569ZM282.445 234.122C282.393 234.319 282.23 234.407 281.98 234.407L278.253 234.407L278.253 237.756C278.253 237.826 277.875 238.081 277.282 238.081L277.102 238.081L277.102 234.407L273.265 234.407L273.125 233.867L277.102 233.867L277.102 231.634L273.735 231.634L273.59 231.098L278.358 231.098C278.758 230.232 279.224 228.971 279.492 228.088L281.206 228.611C281.131 228.809 280.916 228.954 280.521 228.936C280.107 229.582 279.44 230.43 278.811 231.098L280.033 231.098L280.753 230.232C280.753 230.232 281.584 230.843 282.125 231.349C282.085 231.546 281.905 231.634 281.654 231.634L278.253 231.634L278.253 233.867L280.16 233.867L280.969 232.913C280.969 232.913 281.87 233.599 282.445 234.122ZM275.607 230.738C275.533 229.925 274.975 228.883 274.491 228.268L274.707 228.163C277.748 229.441 276.649 231.634 275.607 230.738ZM287.341 237.576C289.16 236.372 291.05 234.442 291.951 233.005L293.55 233.902C293.445 234.082 293.282 234.157 292.887 234.047C291.753 235.326 289.665 236.873 287.521 237.791L287.341 237.576ZM302.155 237.448C301.491 236.152 299.619 234.407 298.27 233.401L298.468 233.221C304.102 235.308 303.579 238.204 302.155 237.448Z" fill="#FFFFFFFF"/>
	<path id="path" d="M204.655 22.3345L218.124 24.6995L217.999 25.4057L217.325 25.288C216.312 25.1107 215.597 25.0934 215.182 25.2362C214.764 25.379 214.443 25.6223 214.217 25.9628C213.991 26.3033 213.746 27.2135 213.484 28.6902L211.223 41.3735C210.811 43.6913 210.713 45.256 210.932 46.0689C211.151 46.8818 211.62 47.6084 212.341 48.2471C213.06 48.8858 214.036 49.3127 215.267 49.5292C216.679 49.7772 217.937 49.6736 219.044 49.2169C220.15 48.7603 221.05 48.0227 221.741 47.001C222.431 45.9794 223.023 44.0931 223.513 41.3437L225.395 30.7806C225.601 29.6224 225.628 28.7719 225.473 28.2336C225.316 27.6938 225.07 27.2967 224.733 27.041C224.208 26.647 223.419 26.3567 222.368 26.1731L222.493 25.4653L231.518 27.0504L231.391 27.7581L230.852 27.6639C230.122 27.5353 229.487 27.576 228.946 27.7816C228.405 27.9888 227.975 28.367 227.653 28.9147C227.413 29.2929 227.201 30.0101 227.011 31.0662L225.258 40.9043C224.716 43.9487 224.123 46.1081 223.478 47.3887C222.833 48.6677 221.627 49.7364 219.861 50.5948C218.095 51.4532 215.857 51.6447 213.15 51.1692C210.893 50.7721 209.202 50.1664 208.076 49.3519C206.541 48.2424 205.54 46.9901 205.074 45.595C204.608 44.1998 204.567 42.4265 204.951 40.2734L207.211 27.5901C207.477 26.1009 207.559 25.1593 207.456 24.767C207.354 24.3746 207.116 24.0341 206.745 23.7454C206.372 23.4566 205.634 23.2228 204.529 23.0407L204.655 22.3345Z" fill-rule="nonzero" fill="#FFFFFF"/>
	<path id="path" d="M248.705 33.778L254.437 53.8323L258.827 43.3963C259.439 41.94 259.643 40.8682 259.437 40.1824C259.152 39.2502 258.324 38.5157 256.957 37.9759L257.235 37.3137L265.313 40.6625L265.035 41.3248C263.945 41.0282 263.179 40.9105 262.738 40.9717C262.295 41.0329 261.876 41.2589 261.479 41.6481C261.083 42.0373 260.643 42.8047 260.161 43.9503L251.661 64.1599L251.047 63.9057L243.012 36.8428L236.521 52.2723C235.933 53.6691 235.859 54.7456 236.295 55.5004C236.733 56.2568 237.365 56.8061 238.195 57.1498L238.772 57.3883L238.494 58.0505L229.822 54.4553L230.102 53.793C231.452 54.3391 232.506 54.4537 233.26 54.1351C234.016 53.8181 234.664 53.0146 235.204 51.7247L242.41 34.594L242.159 33.7325C241.912 32.874 241.634 32.2604 241.322 31.8932C241.011 31.526 240.488 31.176 239.753 30.8433L240.031 30.1811L248.705 33.778Z" fill-rule="nonzero" fill="#FFFFFF"/>
	<path id="path" d="M271.918 74.8407L271.527 75.4449L259.857 68.0314L260.246 67.4272L260.988 67.8981C261.636 68.3092 262.23 68.5258 262.772 68.5478C263.157 68.576 263.544 68.4552 263.936 68.1821C264.225 67.9969 264.728 67.3488 265.444 66.2377L274.839 51.6635C275.569 50.5305 275.964 49.785 276.026 49.4241C276.088 49.0647 276.004 48.6614 275.773 48.2157C275.542 47.77 275.116 47.3479 274.49 46.9508L273.748 46.48L274.139 45.8743L285.808 53.2877L285.419 53.8919L284.678 53.4211C284.03 53.0099 283.435 52.7934 282.893 52.7714C282.509 52.7432 282.115 52.8608 281.714 53.1276C281.425 53.3128 280.922 53.9609 280.206 55.072L270.811 69.6478C270.081 70.7809 269.687 71.5278 269.63 71.8919C269.575 72.256 269.662 72.6593 269.891 73.1066C270.122 73.5522 270.55 73.9744 271.176 74.3715L271.918 74.8407Z" fill-rule="nonzero" fill="#FFFFFF"/>
	<path id="path" d="M312.832 77.4175L312.341 77.9448C311.527 77.4081 310.547 77.2041 309.399 77.3312C308.555 77.4379 306.919 78.0044 304.487 79.0323L284.044 87.64L283.57 87.2053L291.197 65.7277C292.117 63.1383 292.592 61.558 292.62 60.9836C292.647 60.4108 292.324 59.7344 291.648 58.9561L292.138 58.4288L301.465 66.9878L300.973 67.5151L300.657 67.2263C299.814 66.4542 299.144 66.0321 298.643 65.9599C298.29 65.9003 297.985 66.0085 297.729 66.2831C297.571 66.4542 297.421 66.6912 297.28 66.9941C297.14 67.2969 296.817 68.1585 296.311 69.5787L291.504 82.9995L303.321 77.9683C304.743 77.3547 305.671 76.92 306.104 76.6658C306.536 76.4116 306.868 76.1605 307.099 75.9141C307.364 75.6284 307.522 75.3068 307.573 74.9489C307.622 74.5895 307.552 74.2177 307.363 73.8315C307.102 73.2933 306.632 72.7111 305.953 72.0881L306.443 71.5608L312.832 77.4175Z" fill-rule="nonzero" fill="#FFFFFF"/>
	<path id="path" d="M324.059 94.1935L315.215 100.322L315.517 100.752C316.478 102.12 317.608 102.811 318.906 102.826C320.204 102.842 321.756 102.349 323.563 101.35L323.988 101.954L312.613 109.836L312.187 109.232C313.337 108.247 314.162 107.275 314.666 106.32C315.169 105.364 315.368 104.521 315.259 103.791C315.151 103.062 314.736 102.183 314.012 101.155L307.891 105.397C306.694 106.227 305.999 106.784 305.802 107.07C305.606 107.355 305.52 107.696 305.542 108.09C305.564 108.484 305.793 108.987 306.225 109.604L307.13 110.893C308.547 112.908 310.151 114.196 311.945 114.759C313.74 115.323 315.784 115.202 318.079 114.4L318.493 114.989L310.905 118.804L297.797 100.162L298.39 99.752L298.893 100.468C299.332 101.094 299.8 101.519 300.292 101.747C300.635 101.918 301.039 101.952 301.507 101.849C301.846 101.787 302.56 101.379 303.649 100.625L317.942 90.7206C318.923 90.0396 319.508 89.5939 319.696 89.3867C319.995 89.0226 320.145 88.6255 320.148 88.1987C320.164 87.5883 319.926 86.9338 319.434 86.2339L318.931 85.5183L319.524 85.1072L332.22 103.161L325.794 107.613L325.368 107.009C326.721 105.613 327.545 104.4 327.838 103.369C328.13 102.338 328.078 101.204 327.683 99.9639C327.457 99.2357 326.771 98.0572 325.621 96.4235L324.059 94.1935Z" fill-rule="nonzero" fill="#FFFFFF"/>
	<path id="path" d="M330.131 127.917L323.275 130.748C321.952 131.294 321.154 131.719 320.879 132.02C320.604 132.323 320.447 132.72 320.414 133.21C320.379 133.699 320.596 134.501 321.061 135.611L320.393 135.887L315.186 123.457L315.853 123.18C316.323 124.302 316.748 125.021 317.126 125.333C317.504 125.647 317.894 125.815 318.299 125.836C318.702 125.858 319.567 125.596 320.89 125.049L336.768 118.494C338.091 117.948 338.891 117.525 339.166 117.222C339.441 116.919 339.596 116.523 339.631 116.032C339.665 115.541 339.449 114.741 338.984 113.631L339.651 113.355L344.378 124.638C345.608 127.576 346.303 129.809 346.464 131.339C346.626 132.869 346.336 134.291 345.595 135.606C344.855 136.92 343.745 137.883 342.266 138.494C340.462 139.238 338.699 139.209 336.981 138.406C335.89 137.89 334.847 136.968 333.854 135.642L328.019 144.9C327.269 146.107 326.829 146.924 326.7 147.356C326.532 147.999 326.564 148.65 326.799 149.311L326.132 149.587L322.928 141.94L330.799 129.509L330.131 127.917ZM342.13 122.964L331.413 127.388L331.84 128.409C332.536 130.068 333.209 131.247 333.861 131.945C334.512 132.642 335.337 133.062 336.335 133.204C337.332 133.345 338.473 133.15 339.76 132.618C341.626 131.849 342.821 130.846 343.349 129.615C343.875 128.381 343.738 126.804 342.931 124.881L342.13 122.964Z" fill-rule="nonzero" fill="#FFFFFF"/>
	<path id="path" d="M356.647 166.002L348.018 167.887L347.865 167.107C349.966 166.319 351.539 165.076 352.579 163.38C353.619 161.683 353.977 159.998 353.648 158.322C353.393 157.027 352.845 156.07 351.999 155.448C351.153 154.829 350.277 154.606 349.37 154.78C348.795 154.891 348.309 155.124 347.914 155.477C347.385 155.96 346.906 156.666 346.477 157.592C346.172 158.27 345.695 159.792 345.043 162.157C344.139 165.467 343.126 167.777 342.002 169.089C340.876 170.387 339.457 171.201 337.743 171.532C335.569 171.953 333.533 171.473 331.638 170.093C329.742 168.714 328.539 166.73 328.032 164.139C327.872 163.326 327.806 162.543 327.83 161.787C327.853 161.032 327.989 160.064 328.236 158.882C328.372 158.223 328.402 157.697 328.324 157.303C328.26 156.974 328.064 156.649 327.735 156.331C327.406 156.012 326.959 155.789 326.39 155.662L326.252 154.957L336.072 153.06L336.211 153.765C333.559 154.857 331.663 156.34 330.525 158.214C329.385 160.087 328.996 161.944 329.358 163.785C329.637 165.207 330.248 166.264 331.194 166.958C332.139 167.652 333.13 167.898 334.166 167.697C334.781 167.578 335.343 167.302 335.856 166.867C336.368 166.432 336.817 165.834 337.207 165.075C337.594 164.314 338.04 163.016 338.543 161.18C339.246 158.606 339.906 156.726 340.522 155.541C341.139 154.355 341.898 153.388 342.8 152.639C343.701 151.892 344.76 151.401 345.974 151.166C348.045 150.766 349.958 151.18 351.711 152.409C353.466 153.638 354.568 155.401 355.018 157.699C355.183 158.537 355.24 159.369 355.189 160.196C355.153 160.822 355.01 161.603 354.764 162.54C354.516 163.477 354.426 164.117 354.494 164.46C354.558 164.789 354.712 165.029 354.954 165.182C355.195 165.332 355.723 165.414 356.536 165.429L356.647 166.002Z" fill-rule="nonzero" fill="#FFFFFF"/>
	<path id="path" d="M332.18 192.299L331.458 192.323L330.995 178.577L331.717 178.552L331.747 179.425C331.772 180.187 331.93 180.796 332.22 181.253C332.413 181.582 332.733 181.83 333.184 181.997C333.502 182.129 334.324 182.173 335.652 182.129L353.072 181.549C354.427 181.504 355.27 181.405 355.603 181.253C355.937 181.099 356.224 180.803 356.463 180.36C356.702 179.917 356.809 179.331 356.784 178.593L356.756 177.72L357.478 177.697L357.941 191.443L357.219 191.468L357.19 190.595C357.163 189.832 357.007 189.224 356.718 188.767C356.523 188.436 356.202 188.181 355.753 188.003C355.437 187.871 354.614 187.827 353.286 187.871L335.865 188.45C334.51 188.495 333.668 188.597 333.334 188.757C333.001 188.917 332.713 189.217 332.474 189.66C332.235 190.101 332.128 190.689 332.153 191.427L332.18 192.299Z" fill-rule="nonzero" fill="#FFFFFF"/>
	<path id="path" d="M353.352 224.068L346.254 223.055L346.354 222.364C348.05 222.188 349.292 221.901 350.081 221.504C350.87 221.107 351.54 220.503 352.091 219.695C352.392 219.241 352.633 218.406 352.808 217.19L353.09 215.25L332.858 212.363C331.518 212.172 330.669 212.124 330.312 212.225C329.954 212.324 329.621 212.57 329.306 212.964C328.993 213.356 328.781 213.924 328.674 214.667L328.549 215.53L327.833 215.428L329.807 201.795L330.523 201.897L330.398 202.76C330.289 203.515 330.337 204.143 330.541 204.642C330.672 205 330.944 205.307 331.355 205.562C331.644 205.747 332.446 205.934 333.761 206.12L353.992 209.008L354.264 207.126C354.519 205.373 354.329 204.046 353.695 203.146C352.811 201.883 351.425 200.967 349.533 200.397L349.639 199.667L356.737 200.681L353.352 224.068Z" fill-rule="nonzero" fill="#FFFFFF"/>
	<path id="path" d="M342.312 260.368L341.637 260.113C341.839 259.262 341.841 258.55 341.645 257.977C341.366 257.178 340.342 255.695 338.57 253.526L331.665 244.795L325.68 242.519C324.402 242.033 323.582 241.797 323.222 241.813C322.86 241.827 322.485 241.987 322.096 242.288C321.707 242.591 321.388 243.068 321.135 243.72L320.604 245.096L319.929 244.84L325.245 231.054L325.92 231.311L325.424 232.598C325.144 233.323 325.051 233.944 325.144 234.464C325.193 234.842 325.389 235.201 325.734 235.539C325.974 235.782 326.715 236.141 327.956 236.612L332.92 238.498L345.752 236.75C348.286 236.397 349.83 236.057 350.383 235.727C350.937 235.397 351.37 234.842 351.686 234.062L352.361 234.319L347.819 246.094L347.144 245.836L347.347 245.312C347.622 244.6 347.71 244.062 347.614 243.699C347.516 243.337 347.351 243.111 347.12 243.024C346.683 242.858 345.394 242.922 343.259 243.219L333.353 244.542L339.112 251.8C340.513 253.592 341.512 254.601 342.108 254.829C342.437 254.954 342.77 254.901 343.11 254.67C343.573 254.375 344.046 253.689 344.531 252.614L345.206 252.87L342.312 260.368Z" fill-rule="nonzero" fill="#FFFFFF"/>
	<ellipse id="右点_6_" cx="301.042664" cy="294.408508" rx="4.766207" ry="4.731512" fill="#FFFFFF"/>
	<path id="path" d="M189.525 55.2902C115.944 55.2902 55.9312 114.934 55.9312 188.059C55.9312 259.097 112.569 317.399 183.26 320.669L182.237 318.799C113.032 315.017 57.7617 257.752 57.7617 188.059C57.7617 115.933 116.953 57.1074 189.525 57.1074C262.097 57.1074 321.288 115.933 321.288 188.059C321.288 257.969 265.676 315.381 196.172 318.843L195.031 320.69C266.073 317.799 323.117 259.351 323.117 188.059C323.117 114.934 263.104 55.2902 189.525 55.2902Z" fill-rule="nonzero" fill="#FFFFFF"/>
	<path id="path" d="M55.9312 188.059C55.9312 259.097 112.569 317.399 183.26 320.669L182.237 318.799C113.032 315.017 57.7617 257.752 57.7617 188.059C57.7617 115.933 116.953 57.1074 189.525 57.1074C262.097 57.1074 321.288 115.933 321.288 188.059C321.288 257.969 265.676 315.381 196.172 318.843L195.031 320.69C266.073 317.799 323.117 259.351 323.117 188.059C323.117 114.934 263.104 55.2902 189.525 55.2902C115.944 55.2902 55.9312 114.934 55.9312 188.059Z" stroke="#FFFFFF" stroke-width="1.186400"/>
	<path id="东南大学_9_" d="M1085.43 110.748C1085.22 108.844 1085.17 108.218 1085.02 103.014C1084.92 99.5584 1085 97.4538 1084.49 94.1952C1083.02 84.6852 1083.78 87.527 1081.44 80.3456C1081.12 79.3923 1079.8 72.2162 1079.69 71.2277C1079.32 68.0355 1080.93 65.6118 1082.35 64.9254C1084.55 63.8614 1087.51 66.7214 1088.81 68.2256C1092.52 72.5353 1094.16 76.5479 1094.67 79.137C1095.04 81.0476 1096.21 90.0223 1096.23 90.1865C1096.59 94.7812 1097.18 99.5753 1097.69 103.855C1098.24 108.438 1096.68 109.093 1099.25 111.743C1100.51 113.047 1102.25 112.457 1102.77 112.457C1106.15 111.784 1106.73 107.87 1106.26 104.489C1104.93 94.8256 1103.17 93.3135 1102 87.4046C1101.17 83.2305 1101.31 82.6899 1100.97 80.6113C1100.71 78.9847 1100.14 76.587 1099.71 68.662C1099.43 63.5879 1099.64 63.4485 1100.7 59.3109C1101.53 56.0458 1102.97 54.0753 1104.57 53.5166C1108.88 52.0058 1111.61 52.5932 1111.83 54.2772C1113.1 63.6738 1113.27 64.5712 1113.46 70.9424C1113.66 77.4622 1114.4 78.7893 1114.58 82.5754C1114.78 86.4877 1116.05 92.2143 1116.3 97.9213C1116.59 104.55 1118.06 112.986 1123.39 106.647C1125.31 104.367 1123.66 101.64 1124.07 98.6585C1124.55 95.2137 1123.93 94.5221 1124.42 90.74C1125.24 84.3179 1124.14 82.5142 1124.69 73.7986C1124.86 71.0897 1127.41 69.6049 1127.31 68.9902C1127.12 67.8441 1127.14 68.1684 1125.29 63.834C1123.36 59.333 1126.48 40.774 1126.75 32.3034C1126.85 29.2336 1126.12 23.0278 1129.16 19.9646C1130.96 18.1517 1133.97 19.2105 1136.95 20.5546L1138.79 21.9286C1138.99 24.5073 1133.56 29.9695 1147.73 24.0775C1150.61 22.878 1156.18 19.8422 1160.45 21.4376C1163.97 22.7582 1161.55 29.3053 1161.55 29.4173C1161.42 30.2938 1152.42 32.9025 1149.1 34.7258C1142.09 38.5718 1132.25 35.8146 1133.01 52.067C1132.93 53.7028 1132.94 57.162 1132.8 60.5377C1132.7 63.0135 1137.36 58.6949 1140.16 58.6962C1141.56 58.6975 1144.16 60.9519 1144.39 61.09C1145.38 61.6904 1147.28 63.4225 1146.63 62.7778C1147.53 63.6661 1148.13 64.3785 1148.21 64.8955C1148.58 67.3505 1148.65 72.9443 1152.47 71.6783C1157.78 69.9162 1155.26 70.7732 1158.8 69.3458C1160.49 68.662 1164.57 69.407 1167.39 68.916C1171.05 68.2778 1172.08 62.675 1172.27 59.7693C1172.64 54.3671 1172.18 52.9435 1169.94 51.2986C1166.79 48.9908 1162.01 49.7032 1155.84 51.2986C1148.48 53.2014 1146.22 59.1559 1142.4 58.9098C1142.1 58.8915 1139.4 58.368 1139.1 58.3263C1138.96 57.3404 1139.17 57.0682 1139.93 55.6108C1144.27 47.3173 1172.23 32.319 1182.18 44.3921C1187.61 50.9847 1185.68 57.5917 1184.24 63.5853C1182.86 69.3145 1180.78 73.6371 1179.56 77.9076C1178.49 81.6559 1178.88 81.9164 1178.1 86.0097C1177.35 89.8778 1177.47 88.7864 1176.72 92.0984C1176.2 94.4362 1174.08 100.284 1175.99 101.018C1180.32 102.588 1187.23 100.994 1190.98 100.22C1197.83 98.8057 1210.37 102.072 1213.21 104.824C1216.59 108.098 1208.24 116.143 1205.33 117.591C1202.31 118.141 1193.31 125.228 1190.29 125.775C1183.86 129.069 1184.07 128.703 1177.64 131.996C1170.64 134.346 1161 129.623 1166.09 134.594C1168.93 137.367 1167.68 140.331 1165.53 145.164C1163.36 145.887 1158.84 148.364 1156.55 149.428C1154.09 152.235 1154.02 152.083 1153.25 153.52C1150.67 158.383 1143.67 165.548 1149.22 165.399C1162.91 165.032 1160.04 177.092 1160.04 177.092C1160.04 177.092 1164.97 175.909 1170.86 176.519C1176.45 177.098 1181.21 176.013 1184.24 176.683C1190.55 178.078 1196.2 184.499 1198.68 188.98C1199.62 190.685 1198.94 192.36 1197.1 192.908C1195.04 193.521 1192.74 194.503 1191.03 193.46C1187.15 191.105 1186.5 188.987 1183.14 188.468C1175.35 187.265 1160.25 187.077 1160.25 187.077C1160.25 187.077 1159.42 194.934 1159.28 195.303C1157.95 199.001 1153.15 205.485 1151.17 208.009C1147.46 212.735 1138.89 216.354 1134.6 217.278C1114.66 221.575 1106.44 208.817 1109.89 190.351C1111.08 183.967 1116.55 180.099 1123.28 178.484C1128.96 177.121 1139.46 178.251 1139.14 173.492C1138.86 169.482 1138.05 171.682 1135.56 169.072C1129.42 162.643 1134.56 160.382 1138.31 156.939C1140.68 154.76 1140.63 154.182 1141.75 152.581C1142.58 151.395 1143.68 148.993 1143.88 147.793C1144.19 145.983 1141.13 146.75 1138.04 147.088C1130.49 147.911 1129.96 150.525 1124.42 149.104C1122.05 148.494 1120.13 146.966 1121.26 145.462C1123.64 142.27 1123.34 141.924 1125.98 140.797C1129.31 139.379 1130.33 138.833 1134.67 136.684C1140.88 133.603 1143.04 132.567 1146.49 132.326C1149.01 133.159 1152.45 134.197 1155.88 133.646C1162.27 132.617 1161.89 132.042 1167.67 128.03C1172.48 124.692 1179.7 119.751 1182.52 117.138C1183.09 116.609 1185.91 115.04 1189.15 111.854C1189.83 111.186 1189.95 110.738 1189.91 109.399C1189.9 108.814 1190.05 108.356 1189.67 107.619C1189.3 106.882 1187.72 106.701 1185.51 107.404C1184.07 107.864 1183.24 108.11 1181.77 108.77C1181.52 108.882 1177.8 110.622 1177.56 110.737C1175.85 111.532 1175.1 111.579 1173.44 112.314C1169.42 114.106 1170.32 113.838 1165.69 114.58C1164.78 114.727 1161.99 115.885 1158.97 116.777C1156.45 117.526 1155.22 119.971 1153.85 117.286C1153.3 116.212 1152.82 115.2 1153.13 113.757C1153.44 112.296 1153.78 112.56 1153.96 110.993C1154.02 110.515 1153.89 109.609 1153.37 109.49C1152.5 109.291 1154.16 109.716 1151.41 109.061C1149.47 108.6 1146.32 110.53 1146.67 110.313C1149.32 108.699 1145.39 111.479 1142.23 111.792C1140.55 111.957 1139.62 113.36 1138.24 114.523C1136.1 116.325 1134.46 117.163 1132.33 117.439C1129.14 117.852 1129.03 115.966 1125.45 115.106C1121.93 114.261 1118.21 116.011 1115.85 117.93C1114.44 119.072 1114.93 118.912 1111.63 119.976C1110.64 120.295 1108.06 120.713 1104.1 119.467C1101.54 118.66 1103.28 118.136 1098.06 118.136C1095.22 118.136 1094.41 119.078 1089.99 117.684C1088.26 117.135 1086.88 115.852 1086.2 114.521L1085.43 110.748ZM570.954 28.5264C577.675 28.4222 583.674 32.2187 585.536 36.3212C587.598 40.8639 586.911 42.5036 586.911 45.5291C586.911 48.9048 586.692 52.3861 586.498 53.8773C586.177 56.3428 586.093 57.2531 586.498 60.8138C586.793 63.4043 590.726 63.8835 593.237 65.9491C595.747 68.0147 596.295 72.1263 594.979 75.1973C593.759 77.1001 591.755 78.2736 589.753 78.9625C586.866 79.9562 584.144 80.4629 585.105 85.0773C585.817 85.5656 586.535 86.0514 587.25 86.5385C592.576 87.7198 598.155 85.9837 602.222 85.2648C611.023 83.7097 616.265 83.009 624.124 82.5233C627.806 81.8929 633.138 81.4227 637.425 81.0906C642.065 83.2917 648.244 93.096 644.669 100.324C639.151 111.301 618.29 118.237 609.373 127.333C606.562 130.2 603.663 132.384 601.398 134.863C597.961 138.622 594.617 140.466 590.252 143.454C587.05 145.642 583.75 146.89 581.274 149.759C579.417 150.853 579.019 152.219 576.781 154.428C574.213 156.964 574.404 172.3 574.536 176.686C574.72 182.824 574.26 188.983 574.741 194.139C574.842 195.213 575.98 197.153 576.941 200.093C577.255 201.052 577.518 204.784 577.491 206.109C577.491 206.109 578.202 210.652 577.102 213.598C576.194 216.027 571.637 217.299 569.492 219C567.921 218.88 565.104 218.71 563.533 218.591C559.604 216.987 555.568 213.625 552.348 211.471C546.794 207.758 541.478 208.567 540.429 201.814C539.993 199.003 540.407 199.851 541.299 198.751C541.484 198.523 545.327 198.839 545.612 198.721C550.57 198.774 553.989 199.141 558.482 198.928C563.618 198.683 562.341 194.858 562.891 191.093C563.332 188.074 562.891 187.165 562.707 182.499C562.589 179.508 562.949 176.654 560.663 174.465C560.519 174.465 560.379 174.465 560.232 174.465C549.455 181.456 527.772 200.644 509.21 197.814C509.065 196.598 508.924 195.384 508.778 194.165C517.016 190.469 522.872 185.082 529.361 179.939C543.271 168.913 546.262 166.592 559.676 152.817C559.844 152.645 559.912 151.876 559.866 150.252C559.844 149.501 560.108 147.245 559.774 147.142C557.982 146.586 558.388 146.873 557.024 146.938C553.433 147.11 555 147.084 549.919 147.469C539.852 148.235 526.401 153.488 521.636 147.633C519.199 144.637 519.695 140.479 518.978 136.83C517.433 134.163 516.284 129.515 513.936 126.763C511.993 124.485 506.507 120.932 505.353 118.645C504.059 116.087 506.683 114.523 507.496 113.538C516.926 111.098 520.961 115.437 527.3 118.025C530.001 119.128 534.178 118.052 537.338 117.903C542.495 117.656 546.616 117.382 549.416 116.909C558.316 115.406 562.815 114.33 562.64 109.923C562.599 108.893 562.83 109.376 562.777 106.547C562.763 105.72 562.732 104.655 562.433 104.215C562.277 103.984 560.271 103.721 559.407 104.031C555.067 105.583 553.52 105.999 549.851 106.241C539.605 106.916 532.012 107.896 525.304 102.68C523.172 101.022 524.197 98.0074 524.341 97.0332C524.626 96.6685 528.667 96.326 529.154 96.2348C542.3 93.7942 538.489 94.7839 545.381 93.5337C548.319 93.001 562.726 93.8137 562.616 88.9506C562.548 86.0085 563.352 82.2654 561.682 81.0399C558.026 78.3557 557.305 80.5528 552.6 80.6583C546.298 80.799 539.395 80.8328 532.791 73.7726C532.792 71.0923 533.328 70.8083 534.508 69.3927C543.128 68.2296 551.197 67.7986 556.243 67.1396C560.055 66.6407 562.685 66.4728 562.844 63.9474C563.222 57.933 563.009 52.5269 563.12 49.8296C563.281 45.9133 563.111 46.8146 556.382 38.2892C555.911 37.6927 555.946 34.3703 555.946 33.641C556.574 32.8934 557.769 31.3188 558.72 30.8005C562.751 28.7999 567.386 30.5295 570.954 28.5264ZM928.298 68.4861C928.321 67.7607 928.482 54.1078 928.664 53.5908C929.189 52.1048 929.191 50.5823 929.821 50.0106L930.499 49.3294C935.684 47.0972 937.961 49.0676 939.344 51.2999C940.665 54.608 940.31 66.1693 940.215 68.8144C939.918 77.1614 940.03 77.5755 939.849 83.7097C939.737 87.514 940.575 96.8547 940.675 99.9153C940.777 103.076 941.032 105.497 941.408 106.873C941.877 108.584 942.538 110.204 945.626 110.72C952.502 111.866 957.056 110.76 968.454 106.546C977.53 103.189 980.854 103.234 986.331 99.1794C990.091 96.3962 990.27 92.6414 992.503 92.3666C996.324 91.8951 997.262 93.6143 998.524 93.6143C1000.67 96.1071 1006.14 108.297 1004.67 111.784C1003.71 113.625 1003.71 113.625 1000.05 114.412C991.065 116.342 986.923 116.704 978.722 119.149C975.35 120.154 973.13 120.597 969.646 121.85C964.337 123.759 963.726 124.306 957.561 125.766C947.607 128.124 934.311 128.807 934.167 137.727C934.024 146.488 934.443 144.603 932.975 151.969C932.301 155.356 931.396 159.475 929.87 163.412C928.517 166.906 928.317 169.737 926.374 173.004C920.859 182.27 919.543 183.767 909.505 186.59C899.219 189.483 886.149 191.746 879.41 188.046C878.913 186.516 878.676 185.664 879.028 183.916C883.318 179.223 890.986 176.994 896.578 174.19C902.629 171.157 905.242 169.73 910.284 162.854C912.989 159.167 917.736 149.851 918.993 145.585C919.853 142.669 921.224 138.366 921.365 135.856C921.537 132.817 921.804 133.457 921.297 130.177C915.165 127.433 906.662 127.725 899.741 124.96C896.076 123.494 891.26 119.9 889.152 116.612C885.714 111.251 887.502 116.325 885.072 119.476C884.078 120.764 883.011 118.302 881.451 117.103C879.881 115.896 876.177 115.672 875.676 114.566C875.182 113.484 874.396 110.975 875.4 110.228C877.6 108.59 880.396 108.426 882.688 110.719C885.473 113.503 887.756 115.115 891.352 112.929C893.377 111.698 898.776 112.106 900.566 112.13C903.455 112.171 909.146 112.464 911.705 112.377C914.283 112.289 917.104 112.677 919.68 112.52C924.468 112.227 924.761 113.081 926.05 109.785C928.756 102.863 927.822 100.887 927.656 93.1638L928.298 68.4861ZM812.631 148.613C813.484 145.984 814.649 138.627 815.381 134.781C816.097 131.023 816.602 125.166 816.618 120.008C816.638 113.894 814.811 112.504 812.148 112.438C799.908 112.13 789.081 110.776 778.291 112.666C772.953 113.599 772.291 113.624 769.999 114.115C769.536 114.214 768.295 115.143 768.314 115.567C768.448 118.545 768.486 117.44 768.531 119.331C768.555 120.266 768.66 125.356 767.729 125.787C765.532 126.806 758.898 129.563 756.383 133.246C755.289 134.848 754.252 135.271 755.421 137.236C755.96 138.144 759.694 137.166 761.815 136.008C766.893 133.239 769.118 131.132 775.445 130.913C777.07 131.964 778.698 133.018 780.323 134.069C780.189 134.656 780.052 135.24 779.918 135.825C777.181 139.876 762.296 139.908 756.846 144.686C756.98 145.738 756.911 147.267 756.863 149.451C756.807 152.031 755.537 154.006 758.239 154.976C762.115 154.513 762.686 152.464 766.903 152.091C768.126 152.676 770.704 152.364 771.923 152.951C772.466 154.472 772.466 154.472 771.513 156.882C770.145 160.339 769.618 160.2 768.348 160.747C764.359 162.466 760.608 161.561 756.865 163.202C755.224 171.092 758.311 181.474 754.413 189.781C751.571 195.837 752.358 196.199 746.86 201.629C744.592 203.869 739.76 207.553 737.887 207.215C736.469 206.958 732.225 205.66 732.225 202.385C732.225 198.809 733.781 200.745 735.799 199.025C738.854 196.422 739.268 195.109 741.244 190.966C741.951 189.483 742.157 188.276 743.044 185.77C743.677 183.98 744.669 181.562 744.536 179.689C744.975 178.053 744.519 177.56 744.695 174.802C744.879 171.937 743.387 169.213 740.775 169.769C737.315 170.506 734.924 171.737 729.224 171.979C725.421 172.14 720.535 172.913 718.497 170.506C718.474 168.249 718.608 168.391 719.46 167.13C726.544 165.622 731.984 164.155 738.094 162.648C740.871 161.964 742.311 162.117 743.919 160.687C745.122 159.618 744.465 158.678 744.419 157.369C744.282 153.399 744.079 149.464 744.079 149.464C744.079 149.464 735.768 152.224 731.287 154.361C727.783 156.032 726.048 156.788 721.936 154.239C719.46 152.705 719.775 151.637 720.286 150.556C721.386 148.223 720.698 147.732 720.354 144.049C719.633 136.333 714.698 137.134 710.797 133.921C710.03 133.288 708.529 132.079 708.803 130.193C709.508 125.357 716.986 122.78 719.771 119.532C721.979 116.956 722.726 115.879 724.824 112.314C725.982 110.346 727.177 107.774 728.193 105.746C730.582 100.975 736.031 92.7327 735.344 85.244C735.15 83.1224 732.555 80.5176 730.805 80.149C726.264 79.1918 724.224 78.7828 720.698 79.8417C716.952 80.9669 714.352 81.9138 710.316 78.9209C707.013 76.4724 705.421 73.6736 707.932 72.3061C711.864 71.048 719.307 72.0977 723.104 72.1069C729.651 72.1212 731.752 71.8047 736.512 71.9532C738.472 72.0144 738.193 71.3749 738.266 70.0504C738.507 65.6614 737.805 57.7338 738.403 53.7224C738.537 52.8224 737.942 51.1502 738.876 50.6123C739.942 49.9989 742.683 48.6483 743.972 49.0872C748.253 50.5472 756.344 56.1084 752.351 53.3082C752.051 53.0972 755.247 54.9037 754.916 57.0266C754.137 62.0186 752.532 62.2856 752.808 66.5209C753.046 70.1714 753.86 71.1404 760.646 69.3862C766.229 67.9418 772.88 64.5908 777.767 64.1884C779.897 65.1169 780.897 66.8777 780.175 68.9147C778.043 74.9304 773.413 75.5126 766.903 77.2213C763.116 78.2137 759.781 78.607 756.454 79.6567C752.09 81.0334 752.696 80.4551 750.747 82.1117C746.484 85.7336 746.781 88.6184 745.476 92.1791C743.848 96.6177 742.166 99.7838 740.434 103.72C739.633 105.538 738.543 109.076 737.649 111.025C736.591 113.327 733.933 119.157 732.962 120.458C731.018 123.053 731.724 122.299 729.936 125.041C729.224 126.132 729.266 128.684 730.67 128.549C734.52 128.181 734.984 128.54 737.856 126.824C740.158 125.448 745.655 121.812 746.552 122.964C748.684 125.695 744.166 129.068 741.877 131.68C739.715 134.148 736.088 136.71 735.344 137.512C734.844 138.052 733.472 143.724 737.111 142.208L745.171 136.086C750.884 132.816 757.238 122.262 755.559 118.298C754.109 115.682 753.6 115.229 753.461 112.559C753.419 111.742 754.329 110.166 755.628 109.183C756.763 108.323 758.897 107.676 759.168 107.556C778.605 104.296 781.979 105.763 799.611 102.533C802.593 102.533 808.023 101.572 810.978 101.224C820.594 100.09 825.77 98.2469 828.765 107.199C832.706 118.985 832.825 122.997 831.515 132.408C830.836 137.286 829.506 142.353 827.91 147.056C826.374 151.581 825.727 154.503 824.731 157.371C823.679 160.395 822.805 163.264 821.065 167.587C819.66 171.074 817.706 176.178 815.289 180.943C811.654 188.109 808.15 197.008 797.503 197.393C788.491 193.545 780.796 186.783 774.847 180.145C774.021 179.224 773.458 176.696 775.156 176.462C780.485 175.724 793.389 178.875 798.328 175.909C803.137 173.023 804.82 169.314 807.542 162.835L812.631 148.613ZM1126.67 69.9995C1129.28 71.9232 1130.33 72.5822 1130.33 73.8051C1130.33 80.7142 1130.03 91.0825 1129.51 96.5577C1129.28 98.9463 1135.49 94.7682 1135.97 93.5297C1136.99 90.9301 1138.96 89.0599 1139.22 84.3635C1139.41 81.0073 1139.3 79.2087 1139.32 76.8331C1139.33 74.3209 1139.52 72.5965 1137.3 72.4949L1132.99 71.3488L1126.67 69.9995ZM1167.88 74.7467C1165.3 76.1585 1165.96 76.798 1163.14 78.7047C1161.88 79.559 1157.9 82.3748 1155.5 83.4636C1153.26 84.4807 1153.49 83.7553 1152.4 82.4203C1149.49 81.5478 1148.41 81.9606 1148.28 84.8141C1148.1 88.6913 1147.8 88.9883 1147.87 91.8431C1147.93 94.4296 1147.67 94.8177 1147.83 97.5215C1147.86 98.0164 1148.2 103.322 1148.67 103.598C1151.62 105.361 1155.25 104.075 1158.06 103.763C1168.35 102.616 1164 96.4353 1159.39 95.9873C1154.44 95.5054 1153.89 95.2502 1154.07 90.585C1154.08 90.4743 1153.32 86.868 1154.12 85.6438C1155.58 83.405 1155.22 83.6069 1157.97 82.1143C1159.43 81.3212 1162 80.7 1162.83 81.7861C1163.51 82.673 1162.95 84.7582 1163.01 86.2468C1163.11 88.5676 1162.92 93.3265 1165.35 91.4029C1167.15 89.9781 1168.7 86.8759 1170.39 82.8905C1171.86 79.4366 1172.38 78.4937 1172.17 75.6988C1172.06 74.3482 1171.04 74.2714 1170.38 74.1646L1167.88 74.7467ZM598.829 98.032C591.117 98.9528 579.026 95.495 580.126 106.871C580.51 110.84 583.21 109.755 585.902 109.654C590.135 109.496 594.332 108.844 596.216 110.432C597.177 111.242 597.841 113.134 597.866 114.893C597.895 116.978 595.858 119.181 595.253 119.722C594.198 120.664 592.718 120.033 591.219 120.049C585.68 120.109 579.953 118.818 580.31 122.995C580.74 128.032 580.587 134.107 587.432 129.382C594.211 124.701 613.6 110.032 618.119 103.357C620.503 99.8384 620.278 96.83 619.273 96.3129C616.646 95.1564 613.131 95.7399 608.73 96.559L598.829 98.032ZM1062.03 113.909C1066.25 112.518 1069.64 119.79 1070.1 122.503C1071.34 129.754 1069.5 134.801 1065.46 144.416C1063.05 150.142 1046.38 154.826 1045.9 149.92C1044.61 136.825 1052.45 136.023 1055.4 128.101C1057.09 123.607 1057.22 120.515 1059.1 117.181L1062.03 113.909ZM555.145 125.205C544.281 126.126 540.636 123.793 537.679 127.415C536.236 129.182 535.331 131.632 535.411 133.185C535.526 135.447 535.064 138.45 538.436 138.771C545.248 139.417 548.201 139.262 556.245 138.524C560.398 138.144 561.952 136.622 562.672 132.67C563.005 130.844 562.639 130.667 562.729 127.577C562.745 127.006 563.072 125.38 562.02 125.265L555.145 125.205ZM686.803 126.623C688.162 126.623 689.645 126.117 690.884 126.623C693.816 127.823 697.116 133.552 697.667 136.499C699.3 145.247 698.076 147.692 697.805 151.845C697.505 156.432 697.86 157.392 698.217 159.989C698.905 164.981 701.868 167.319 701.776 169.984C701.609 174.802 702.709 174.229 698.4 180.531C696.932 182.677 694.101 180.274 693.082 178.894C690.75 175.731 690.75 175.731 688.503 172.528C685.432 168.147 680.157 166.682 682.355 157.37C684.554 148.062 684.582 154.21 684.555 147.14C684.526 138.971 681.573 131.899 686.803 126.623ZM963.834 153.631C965.243 153.114 969.095 154.096 971.936 155.406C974.523 156.598 975.21 157.693 977.988 159.334C979.852 160.436 981.555 161.269 983.58 162.117C986.513 163.345 987.943 164.485 989.081 165.8C992.187 167.736 994.181 169.601 996.415 172.225C998.785 175.007 1000.97 178.366 1002.74 181.801C1004.05 184.334 1006.73 190.688 1004.94 195.674C1004.64 196.499 1001.16 198.829 1000.53 199.488C999.262 199.377 997.999 199.268 996.733 199.157C990.069 196.345 981.562 192.728 978.123 187.081C975.346 182.519 973.831 175.312 971.248 168.543L963.834 153.631ZM599.15 168.296C611.226 170.102 618.872 172.935 627.982 175.211C638.063 177.725 642.489 179.284 643.017 185.688C643.417 190.529 642.106 193.33 638.205 199.356C634.696 204.775 631.522 203.823 629.025 202.947C627.555 202.431 626.769 201.527 625.69 200.277C622.941 197.085 623.028 191.547 622.802 190.639C621.426 185.115 607.284 181.084 599.418 176.817C595.205 174.531 590.445 172.966 593.262 168.818C593.516 168.71 594.265 167.892 597.179 168.049L599.15 168.296ZM1139.27 187.162C1135.79 187.105 1133.82 186.507 1128.77 187.326C1123.64 188.161 1122.22 189.702 1118.23 192.891C1111.44 198.323 1119.45 214.257 1130.06 211.307C1134.96 209.943 1140.79 206.233 1141.98 198.866C1142.38 196.401 1142.11 190.641 1142.11 187.286L1139.27 187.162Z" fill-rule="evenodd" fill="#FFFFFF"/>
	<defs/>
</svg>
